%TF.GenerationSoftware,KiCad,Pcbnew,9.0.1*%
%TF.CreationDate,2025-04-11T23:04:53+05:30*%
%TF.ProjectId,split,73706c69-742e-46b6-9963-61645f706362,rev?*%
%TF.SameCoordinates,Original*%
%TF.FileFunction,Profile,NP*%
%FSLAX46Y46*%
G04 Gerber Fmt 4.6, Leading zero omitted, Abs format (unit mm)*
G04 Created by KiCad (PCBNEW 9.0.1) date 2025-04-11 23:04:53*
%MOMM*%
%LPD*%
G01*
G04 APERTURE LIST*
%TA.AperFunction,Profile*%
%ADD10C,0.050000*%
%TD*%
G04 APERTURE END LIST*
D10*
X154622500Y-45561250D02*
X173672500Y-45561250D01*
X135572500Y-102711250D02*
X135572500Y-97948750D01*
X97472500Y-55086250D02*
X97472500Y-112236250D01*
X173672500Y-47942500D02*
X192722500Y-47942500D01*
X97472500Y-55086250D02*
X116522500Y-55086250D01*
X223678750Y-112236250D02*
X216750881Y-135322859D01*
X173672500Y-45561250D02*
X173672500Y-47942500D01*
X154622500Y-124142500D02*
X216750881Y-135322859D01*
X154622500Y-97948750D02*
X154622500Y-124142500D01*
X135572500Y-45561250D02*
X135572500Y-40798750D01*
X192722500Y-47942500D02*
X223682724Y-47942500D01*
X116522500Y-112236250D02*
X116522500Y-102711250D01*
X116522500Y-55086250D02*
X116522500Y-45561250D01*
X97472500Y-112236250D02*
X116522500Y-112236250D01*
X116522500Y-102711250D02*
X135572500Y-102711250D01*
X154622500Y-40798750D02*
X154622500Y-45561250D01*
X135572500Y-40798750D02*
X154622500Y-40798750D01*
X223682724Y-47942500D02*
X223678750Y-112236250D01*
X116522500Y-45561250D02*
X135572500Y-45561250D01*
X135572500Y-97948750D02*
X154622500Y-97948750D01*
M02*
