%TF.GenerationSoftware,KiCad,Pcbnew,9.0.1*%
%TF.CreationDate,2025-04-11T23:04:52+05:30*%
%TF.ProjectId,split,73706c69-742e-46b6-9963-61645f706362,rev?*%
%TF.SameCoordinates,Original*%
%TF.FileFunction,Legend,Top*%
%TF.FilePolarity,Positive*%
%FSLAX46Y46*%
G04 Gerber Fmt 4.6, Leading zero omitted, Abs format (unit mm)*
G04 Created by KiCad (PCBNEW 9.0.1) date 2025-04-11 23:04:52*
%MOMM*%
%LPD*%
G01*
G04 APERTURE LIST*
%ADD10C,0.150000*%
G04 APERTURE END LIST*
D10*
X181959405Y-49619700D02*
X182102262Y-49667319D01*
X182102262Y-49667319D02*
X182340357Y-49667319D01*
X182340357Y-49667319D02*
X182435595Y-49619700D01*
X182435595Y-49619700D02*
X182483214Y-49572080D01*
X182483214Y-49572080D02*
X182530833Y-49476842D01*
X182530833Y-49476842D02*
X182530833Y-49381604D01*
X182530833Y-49381604D02*
X182483214Y-49286366D01*
X182483214Y-49286366D02*
X182435595Y-49238747D01*
X182435595Y-49238747D02*
X182340357Y-49191128D01*
X182340357Y-49191128D02*
X182149881Y-49143509D01*
X182149881Y-49143509D02*
X182054643Y-49095890D01*
X182054643Y-49095890D02*
X182007024Y-49048271D01*
X182007024Y-49048271D02*
X181959405Y-48953033D01*
X181959405Y-48953033D02*
X181959405Y-48857795D01*
X181959405Y-48857795D02*
X182007024Y-48762557D01*
X182007024Y-48762557D02*
X182054643Y-48714938D01*
X182054643Y-48714938D02*
X182149881Y-48667319D01*
X182149881Y-48667319D02*
X182387976Y-48667319D01*
X182387976Y-48667319D02*
X182530833Y-48714938D01*
X183483214Y-49667319D02*
X182911786Y-49667319D01*
X183197500Y-49667319D02*
X183197500Y-48667319D01*
X183197500Y-48667319D02*
X183102262Y-48810176D01*
X183102262Y-48810176D02*
X183007024Y-48905414D01*
X183007024Y-48905414D02*
X182911786Y-48953033D01*
X184340357Y-48667319D02*
X184149881Y-48667319D01*
X184149881Y-48667319D02*
X184054643Y-48714938D01*
X184054643Y-48714938D02*
X184007024Y-48762557D01*
X184007024Y-48762557D02*
X183911786Y-48905414D01*
X183911786Y-48905414D02*
X183864167Y-49095890D01*
X183864167Y-49095890D02*
X183864167Y-49476842D01*
X183864167Y-49476842D02*
X183911786Y-49572080D01*
X183911786Y-49572080D02*
X183959405Y-49619700D01*
X183959405Y-49619700D02*
X184054643Y-49667319D01*
X184054643Y-49667319D02*
X184245119Y-49667319D01*
X184245119Y-49667319D02*
X184340357Y-49619700D01*
X184340357Y-49619700D02*
X184387976Y-49572080D01*
X184387976Y-49572080D02*
X184435595Y-49476842D01*
X184435595Y-49476842D02*
X184435595Y-49238747D01*
X184435595Y-49238747D02*
X184387976Y-49143509D01*
X184387976Y-49143509D02*
X184340357Y-49095890D01*
X184340357Y-49095890D02*
X184245119Y-49048271D01*
X184245119Y-49048271D02*
X184054643Y-49048271D01*
X184054643Y-49048271D02*
X183959405Y-49095890D01*
X183959405Y-49095890D02*
X183911786Y-49143509D01*
X183911786Y-49143509D02*
X183864167Y-49238747D01*
X181959405Y-87719700D02*
X182102262Y-87767319D01*
X182102262Y-87767319D02*
X182340357Y-87767319D01*
X182340357Y-87767319D02*
X182435595Y-87719700D01*
X182435595Y-87719700D02*
X182483214Y-87672080D01*
X182483214Y-87672080D02*
X182530833Y-87576842D01*
X182530833Y-87576842D02*
X182530833Y-87481604D01*
X182530833Y-87481604D02*
X182483214Y-87386366D01*
X182483214Y-87386366D02*
X182435595Y-87338747D01*
X182435595Y-87338747D02*
X182340357Y-87291128D01*
X182340357Y-87291128D02*
X182149881Y-87243509D01*
X182149881Y-87243509D02*
X182054643Y-87195890D01*
X182054643Y-87195890D02*
X182007024Y-87148271D01*
X182007024Y-87148271D02*
X181959405Y-87053033D01*
X181959405Y-87053033D02*
X181959405Y-86957795D01*
X181959405Y-86957795D02*
X182007024Y-86862557D01*
X182007024Y-86862557D02*
X182054643Y-86814938D01*
X182054643Y-86814938D02*
X182149881Y-86767319D01*
X182149881Y-86767319D02*
X182387976Y-86767319D01*
X182387976Y-86767319D02*
X182530833Y-86814938D01*
X183483214Y-87767319D02*
X182911786Y-87767319D01*
X183197500Y-87767319D02*
X183197500Y-86767319D01*
X183197500Y-86767319D02*
X183102262Y-86910176D01*
X183102262Y-86910176D02*
X183007024Y-87005414D01*
X183007024Y-87005414D02*
X182911786Y-87053033D01*
X184054643Y-87195890D02*
X183959405Y-87148271D01*
X183959405Y-87148271D02*
X183911786Y-87100652D01*
X183911786Y-87100652D02*
X183864167Y-87005414D01*
X183864167Y-87005414D02*
X183864167Y-86957795D01*
X183864167Y-86957795D02*
X183911786Y-86862557D01*
X183911786Y-86862557D02*
X183959405Y-86814938D01*
X183959405Y-86814938D02*
X184054643Y-86767319D01*
X184054643Y-86767319D02*
X184245119Y-86767319D01*
X184245119Y-86767319D02*
X184340357Y-86814938D01*
X184340357Y-86814938D02*
X184387976Y-86862557D01*
X184387976Y-86862557D02*
X184435595Y-86957795D01*
X184435595Y-86957795D02*
X184435595Y-87005414D01*
X184435595Y-87005414D02*
X184387976Y-87100652D01*
X184387976Y-87100652D02*
X184340357Y-87148271D01*
X184340357Y-87148271D02*
X184245119Y-87195890D01*
X184245119Y-87195890D02*
X184054643Y-87195890D01*
X184054643Y-87195890D02*
X183959405Y-87243509D01*
X183959405Y-87243509D02*
X183911786Y-87291128D01*
X183911786Y-87291128D02*
X183864167Y-87386366D01*
X183864167Y-87386366D02*
X183864167Y-87576842D01*
X183864167Y-87576842D02*
X183911786Y-87672080D01*
X183911786Y-87672080D02*
X183959405Y-87719700D01*
X183959405Y-87719700D02*
X184054643Y-87767319D01*
X184054643Y-87767319D02*
X184245119Y-87767319D01*
X184245119Y-87767319D02*
X184340357Y-87719700D01*
X184340357Y-87719700D02*
X184387976Y-87672080D01*
X184387976Y-87672080D02*
X184435595Y-87576842D01*
X184435595Y-87576842D02*
X184435595Y-87386366D01*
X184435595Y-87386366D02*
X184387976Y-87291128D01*
X184387976Y-87291128D02*
X184340357Y-87243509D01*
X184340357Y-87243509D02*
X184245119Y-87195890D01*
X186652022Y-109836943D02*
X186784439Y-109908646D01*
X186784439Y-109908646D02*
X187018917Y-109949991D01*
X187018917Y-109949991D02*
X187120978Y-109919633D01*
X187120978Y-109919633D02*
X187176142Y-109881006D01*
X187176142Y-109881006D02*
X187239576Y-109795484D01*
X187239576Y-109795484D02*
X187256114Y-109701693D01*
X187256114Y-109701693D02*
X187225756Y-109599633D01*
X187225756Y-109599633D02*
X187187129Y-109544468D01*
X187187129Y-109544468D02*
X187101607Y-109481035D01*
X187101607Y-109481035D02*
X186922294Y-109401063D01*
X186922294Y-109401063D02*
X186836771Y-109337630D01*
X186836771Y-109337630D02*
X186798145Y-109282465D01*
X186798145Y-109282465D02*
X186767787Y-109180405D01*
X186767787Y-109180405D02*
X186784325Y-109086614D01*
X186784325Y-109086614D02*
X186847758Y-109001091D01*
X186847758Y-109001091D02*
X186902923Y-108962465D01*
X186902923Y-108962465D02*
X187004983Y-108932107D01*
X187004983Y-108932107D02*
X187239461Y-108973452D01*
X187239461Y-108973452D02*
X187371879Y-109045154D01*
X188144412Y-110148446D02*
X187581665Y-110049218D01*
X187863038Y-110098832D02*
X188036687Y-109114024D01*
X188036687Y-109114024D02*
X187918089Y-109238173D01*
X187918089Y-109238173D02*
X187807759Y-109315426D01*
X187807759Y-109315426D02*
X187705699Y-109345784D01*
X189104299Y-109640748D02*
X188988533Y-110297287D01*
X188935972Y-109224239D02*
X188577460Y-109886328D01*
X188577460Y-109886328D02*
X189187103Y-109993825D01*
X164790973Y-107172804D02*
X164929136Y-107232693D01*
X164929136Y-107232693D02*
X165166326Y-107253444D01*
X165166326Y-107253444D02*
X165265352Y-107214307D01*
X165265352Y-107214307D02*
X165316940Y-107171019D01*
X165316940Y-107171019D02*
X165372678Y-107080294D01*
X165372678Y-107080294D02*
X165380979Y-106985418D01*
X165380979Y-106985418D02*
X165341841Y-106886392D01*
X165341841Y-106886392D02*
X165298554Y-106834804D01*
X165298554Y-106834804D02*
X165207828Y-106779066D01*
X165207828Y-106779066D02*
X165022227Y-106715027D01*
X165022227Y-106715027D02*
X164931502Y-106659288D01*
X164931502Y-106659288D02*
X164888214Y-106607700D01*
X164888214Y-106607700D02*
X164849077Y-106508674D01*
X164849077Y-106508674D02*
X164857378Y-106413798D01*
X164857378Y-106413798D02*
X164913116Y-106323073D01*
X164913116Y-106323073D02*
X164964704Y-106279785D01*
X164964704Y-106279785D02*
X165063730Y-106240648D01*
X165063730Y-106240648D02*
X165300919Y-106261400D01*
X165300919Y-106261400D02*
X165439083Y-106321288D01*
X166304834Y-107353051D02*
X165735580Y-107303247D01*
X166020207Y-107328149D02*
X166107363Y-106331954D01*
X166107363Y-106331954D02*
X166000036Y-106465967D01*
X166000036Y-106465967D02*
X165896860Y-106552542D01*
X165896860Y-106552542D02*
X165797834Y-106591680D01*
X166724055Y-106385908D02*
X167340747Y-106439861D01*
X167340747Y-106439861D02*
X166975479Y-106790312D01*
X166975479Y-106790312D02*
X167117793Y-106802763D01*
X167117793Y-106802763D02*
X167208518Y-106858501D01*
X167208518Y-106858501D02*
X167251806Y-106910089D01*
X167251806Y-106910089D02*
X167290943Y-107009115D01*
X167290943Y-107009115D02*
X167270192Y-107246305D01*
X167270192Y-107246305D02*
X167214454Y-107337030D01*
X167214454Y-107337030D02*
X167162865Y-107380318D01*
X167162865Y-107380318D02*
X167063839Y-107419455D01*
X167063839Y-107419455D02*
X166779212Y-107394553D01*
X166779212Y-107394553D02*
X166688487Y-107338815D01*
X166688487Y-107338815D02*
X166645199Y-107287227D01*
X162909405Y-85338450D02*
X163052262Y-85386069D01*
X163052262Y-85386069D02*
X163290357Y-85386069D01*
X163290357Y-85386069D02*
X163385595Y-85338450D01*
X163385595Y-85338450D02*
X163433214Y-85290830D01*
X163433214Y-85290830D02*
X163480833Y-85195592D01*
X163480833Y-85195592D02*
X163480833Y-85100354D01*
X163480833Y-85100354D02*
X163433214Y-85005116D01*
X163433214Y-85005116D02*
X163385595Y-84957497D01*
X163385595Y-84957497D02*
X163290357Y-84909878D01*
X163290357Y-84909878D02*
X163099881Y-84862259D01*
X163099881Y-84862259D02*
X163004643Y-84814640D01*
X163004643Y-84814640D02*
X162957024Y-84767021D01*
X162957024Y-84767021D02*
X162909405Y-84671783D01*
X162909405Y-84671783D02*
X162909405Y-84576545D01*
X162909405Y-84576545D02*
X162957024Y-84481307D01*
X162957024Y-84481307D02*
X163004643Y-84433688D01*
X163004643Y-84433688D02*
X163099881Y-84386069D01*
X163099881Y-84386069D02*
X163337976Y-84386069D01*
X163337976Y-84386069D02*
X163480833Y-84433688D01*
X164433214Y-85386069D02*
X163861786Y-85386069D01*
X164147500Y-85386069D02*
X164147500Y-84386069D01*
X164147500Y-84386069D02*
X164052262Y-84528926D01*
X164052262Y-84528926D02*
X163957024Y-84624164D01*
X163957024Y-84624164D02*
X163861786Y-84671783D01*
X164814167Y-84481307D02*
X164861786Y-84433688D01*
X164861786Y-84433688D02*
X164957024Y-84386069D01*
X164957024Y-84386069D02*
X165195119Y-84386069D01*
X165195119Y-84386069D02*
X165290357Y-84433688D01*
X165290357Y-84433688D02*
X165337976Y-84481307D01*
X165337976Y-84481307D02*
X165385595Y-84576545D01*
X165385595Y-84576545D02*
X165385595Y-84671783D01*
X165385595Y-84671783D02*
X165337976Y-84814640D01*
X165337976Y-84814640D02*
X164766548Y-85386069D01*
X164766548Y-85386069D02*
X165385595Y-85386069D01*
X143859405Y-80575950D02*
X144002262Y-80623569D01*
X144002262Y-80623569D02*
X144240357Y-80623569D01*
X144240357Y-80623569D02*
X144335595Y-80575950D01*
X144335595Y-80575950D02*
X144383214Y-80528330D01*
X144383214Y-80528330D02*
X144430833Y-80433092D01*
X144430833Y-80433092D02*
X144430833Y-80337854D01*
X144430833Y-80337854D02*
X144383214Y-80242616D01*
X144383214Y-80242616D02*
X144335595Y-80194997D01*
X144335595Y-80194997D02*
X144240357Y-80147378D01*
X144240357Y-80147378D02*
X144049881Y-80099759D01*
X144049881Y-80099759D02*
X143954643Y-80052140D01*
X143954643Y-80052140D02*
X143907024Y-80004521D01*
X143907024Y-80004521D02*
X143859405Y-79909283D01*
X143859405Y-79909283D02*
X143859405Y-79814045D01*
X143859405Y-79814045D02*
X143907024Y-79718807D01*
X143907024Y-79718807D02*
X143954643Y-79671188D01*
X143954643Y-79671188D02*
X144049881Y-79623569D01*
X144049881Y-79623569D02*
X144287976Y-79623569D01*
X144287976Y-79623569D02*
X144430833Y-79671188D01*
X145383214Y-80623569D02*
X144811786Y-80623569D01*
X145097500Y-80623569D02*
X145097500Y-79623569D01*
X145097500Y-79623569D02*
X145002262Y-79766426D01*
X145002262Y-79766426D02*
X144907024Y-79861664D01*
X144907024Y-79861664D02*
X144811786Y-79909283D01*
X146335595Y-80623569D02*
X145764167Y-80623569D01*
X146049881Y-80623569D02*
X146049881Y-79623569D01*
X146049881Y-79623569D02*
X145954643Y-79766426D01*
X145954643Y-79766426D02*
X145859405Y-79861664D01*
X145859405Y-79861664D02*
X145764167Y-79909283D01*
X106235595Y-94863450D02*
X106378452Y-94911069D01*
X106378452Y-94911069D02*
X106616547Y-94911069D01*
X106616547Y-94911069D02*
X106711785Y-94863450D01*
X106711785Y-94863450D02*
X106759404Y-94815830D01*
X106759404Y-94815830D02*
X106807023Y-94720592D01*
X106807023Y-94720592D02*
X106807023Y-94625354D01*
X106807023Y-94625354D02*
X106759404Y-94530116D01*
X106759404Y-94530116D02*
X106711785Y-94482497D01*
X106711785Y-94482497D02*
X106616547Y-94434878D01*
X106616547Y-94434878D02*
X106426071Y-94387259D01*
X106426071Y-94387259D02*
X106330833Y-94339640D01*
X106330833Y-94339640D02*
X106283214Y-94292021D01*
X106283214Y-94292021D02*
X106235595Y-94196783D01*
X106235595Y-94196783D02*
X106235595Y-94101545D01*
X106235595Y-94101545D02*
X106283214Y-94006307D01*
X106283214Y-94006307D02*
X106330833Y-93958688D01*
X106330833Y-93958688D02*
X106426071Y-93911069D01*
X106426071Y-93911069D02*
X106664166Y-93911069D01*
X106664166Y-93911069D02*
X106807023Y-93958688D01*
X107283214Y-94911069D02*
X107473690Y-94911069D01*
X107473690Y-94911069D02*
X107568928Y-94863450D01*
X107568928Y-94863450D02*
X107616547Y-94815830D01*
X107616547Y-94815830D02*
X107711785Y-94672973D01*
X107711785Y-94672973D02*
X107759404Y-94482497D01*
X107759404Y-94482497D02*
X107759404Y-94101545D01*
X107759404Y-94101545D02*
X107711785Y-94006307D01*
X107711785Y-94006307D02*
X107664166Y-93958688D01*
X107664166Y-93958688D02*
X107568928Y-93911069D01*
X107568928Y-93911069D02*
X107378452Y-93911069D01*
X107378452Y-93911069D02*
X107283214Y-93958688D01*
X107283214Y-93958688D02*
X107235595Y-94006307D01*
X107235595Y-94006307D02*
X107187976Y-94101545D01*
X107187976Y-94101545D02*
X107187976Y-94339640D01*
X107187976Y-94339640D02*
X107235595Y-94434878D01*
X107235595Y-94434878D02*
X107283214Y-94482497D01*
X107283214Y-94482497D02*
X107378452Y-94530116D01*
X107378452Y-94530116D02*
X107568928Y-94530116D01*
X107568928Y-94530116D02*
X107664166Y-94482497D01*
X107664166Y-94482497D02*
X107711785Y-94434878D01*
X107711785Y-94434878D02*
X107759404Y-94339640D01*
X125285595Y-66288450D02*
X125428452Y-66336069D01*
X125428452Y-66336069D02*
X125666547Y-66336069D01*
X125666547Y-66336069D02*
X125761785Y-66288450D01*
X125761785Y-66288450D02*
X125809404Y-66240830D01*
X125809404Y-66240830D02*
X125857023Y-66145592D01*
X125857023Y-66145592D02*
X125857023Y-66050354D01*
X125857023Y-66050354D02*
X125809404Y-65955116D01*
X125809404Y-65955116D02*
X125761785Y-65907497D01*
X125761785Y-65907497D02*
X125666547Y-65859878D01*
X125666547Y-65859878D02*
X125476071Y-65812259D01*
X125476071Y-65812259D02*
X125380833Y-65764640D01*
X125380833Y-65764640D02*
X125333214Y-65717021D01*
X125333214Y-65717021D02*
X125285595Y-65621783D01*
X125285595Y-65621783D02*
X125285595Y-65526545D01*
X125285595Y-65526545D02*
X125333214Y-65431307D01*
X125333214Y-65431307D02*
X125380833Y-65383688D01*
X125380833Y-65383688D02*
X125476071Y-65336069D01*
X125476071Y-65336069D02*
X125714166Y-65336069D01*
X125714166Y-65336069D02*
X125857023Y-65383688D01*
X126714166Y-65336069D02*
X126523690Y-65336069D01*
X126523690Y-65336069D02*
X126428452Y-65383688D01*
X126428452Y-65383688D02*
X126380833Y-65431307D01*
X126380833Y-65431307D02*
X126285595Y-65574164D01*
X126285595Y-65574164D02*
X126237976Y-65764640D01*
X126237976Y-65764640D02*
X126237976Y-66145592D01*
X126237976Y-66145592D02*
X126285595Y-66240830D01*
X126285595Y-66240830D02*
X126333214Y-66288450D01*
X126333214Y-66288450D02*
X126428452Y-66336069D01*
X126428452Y-66336069D02*
X126618928Y-66336069D01*
X126618928Y-66336069D02*
X126714166Y-66288450D01*
X126714166Y-66288450D02*
X126761785Y-66240830D01*
X126761785Y-66240830D02*
X126809404Y-66145592D01*
X126809404Y-66145592D02*
X126809404Y-65907497D01*
X126809404Y-65907497D02*
X126761785Y-65812259D01*
X126761785Y-65812259D02*
X126714166Y-65764640D01*
X126714166Y-65764640D02*
X126618928Y-65717021D01*
X126618928Y-65717021D02*
X126428452Y-65717021D01*
X126428452Y-65717021D02*
X126333214Y-65764640D01*
X126333214Y-65764640D02*
X126285595Y-65812259D01*
X126285595Y-65812259D02*
X126237976Y-65907497D01*
X106235595Y-75813450D02*
X106378452Y-75861069D01*
X106378452Y-75861069D02*
X106616547Y-75861069D01*
X106616547Y-75861069D02*
X106711785Y-75813450D01*
X106711785Y-75813450D02*
X106759404Y-75765830D01*
X106759404Y-75765830D02*
X106807023Y-75670592D01*
X106807023Y-75670592D02*
X106807023Y-75575354D01*
X106807023Y-75575354D02*
X106759404Y-75480116D01*
X106759404Y-75480116D02*
X106711785Y-75432497D01*
X106711785Y-75432497D02*
X106616547Y-75384878D01*
X106616547Y-75384878D02*
X106426071Y-75337259D01*
X106426071Y-75337259D02*
X106330833Y-75289640D01*
X106330833Y-75289640D02*
X106283214Y-75242021D01*
X106283214Y-75242021D02*
X106235595Y-75146783D01*
X106235595Y-75146783D02*
X106235595Y-75051545D01*
X106235595Y-75051545D02*
X106283214Y-74956307D01*
X106283214Y-74956307D02*
X106330833Y-74908688D01*
X106330833Y-74908688D02*
X106426071Y-74861069D01*
X106426071Y-74861069D02*
X106664166Y-74861069D01*
X106664166Y-74861069D02*
X106807023Y-74908688D01*
X107711785Y-74861069D02*
X107235595Y-74861069D01*
X107235595Y-74861069D02*
X107187976Y-75337259D01*
X107187976Y-75337259D02*
X107235595Y-75289640D01*
X107235595Y-75289640D02*
X107330833Y-75242021D01*
X107330833Y-75242021D02*
X107568928Y-75242021D01*
X107568928Y-75242021D02*
X107664166Y-75289640D01*
X107664166Y-75289640D02*
X107711785Y-75337259D01*
X107711785Y-75337259D02*
X107759404Y-75432497D01*
X107759404Y-75432497D02*
X107759404Y-75670592D01*
X107759404Y-75670592D02*
X107711785Y-75765830D01*
X107711785Y-75765830D02*
X107664166Y-75813450D01*
X107664166Y-75813450D02*
X107568928Y-75861069D01*
X107568928Y-75861069D02*
X107330833Y-75861069D01*
X107330833Y-75861069D02*
X107235595Y-75813450D01*
X107235595Y-75813450D02*
X107187976Y-75765830D01*
X144335595Y-42475950D02*
X144478452Y-42523569D01*
X144478452Y-42523569D02*
X144716547Y-42523569D01*
X144716547Y-42523569D02*
X144811785Y-42475950D01*
X144811785Y-42475950D02*
X144859404Y-42428330D01*
X144859404Y-42428330D02*
X144907023Y-42333092D01*
X144907023Y-42333092D02*
X144907023Y-42237854D01*
X144907023Y-42237854D02*
X144859404Y-42142616D01*
X144859404Y-42142616D02*
X144811785Y-42094997D01*
X144811785Y-42094997D02*
X144716547Y-42047378D01*
X144716547Y-42047378D02*
X144526071Y-41999759D01*
X144526071Y-41999759D02*
X144430833Y-41952140D01*
X144430833Y-41952140D02*
X144383214Y-41904521D01*
X144383214Y-41904521D02*
X144335595Y-41809283D01*
X144335595Y-41809283D02*
X144335595Y-41714045D01*
X144335595Y-41714045D02*
X144383214Y-41618807D01*
X144383214Y-41618807D02*
X144430833Y-41571188D01*
X144430833Y-41571188D02*
X144526071Y-41523569D01*
X144526071Y-41523569D02*
X144764166Y-41523569D01*
X144764166Y-41523569D02*
X144907023Y-41571188D01*
X145240357Y-41523569D02*
X145859404Y-41523569D01*
X145859404Y-41523569D02*
X145526071Y-41904521D01*
X145526071Y-41904521D02*
X145668928Y-41904521D01*
X145668928Y-41904521D02*
X145764166Y-41952140D01*
X145764166Y-41952140D02*
X145811785Y-41999759D01*
X145811785Y-41999759D02*
X145859404Y-42094997D01*
X145859404Y-42094997D02*
X145859404Y-42333092D01*
X145859404Y-42333092D02*
X145811785Y-42428330D01*
X145811785Y-42428330D02*
X145764166Y-42475950D01*
X145764166Y-42475950D02*
X145668928Y-42523569D01*
X145668928Y-42523569D02*
X145383214Y-42523569D01*
X145383214Y-42523569D02*
X145287976Y-42475950D01*
X145287976Y-42475950D02*
X145240357Y-42428330D01*
X125285595Y-47238450D02*
X125428452Y-47286069D01*
X125428452Y-47286069D02*
X125666547Y-47286069D01*
X125666547Y-47286069D02*
X125761785Y-47238450D01*
X125761785Y-47238450D02*
X125809404Y-47190830D01*
X125809404Y-47190830D02*
X125857023Y-47095592D01*
X125857023Y-47095592D02*
X125857023Y-47000354D01*
X125857023Y-47000354D02*
X125809404Y-46905116D01*
X125809404Y-46905116D02*
X125761785Y-46857497D01*
X125761785Y-46857497D02*
X125666547Y-46809878D01*
X125666547Y-46809878D02*
X125476071Y-46762259D01*
X125476071Y-46762259D02*
X125380833Y-46714640D01*
X125380833Y-46714640D02*
X125333214Y-46667021D01*
X125333214Y-46667021D02*
X125285595Y-46571783D01*
X125285595Y-46571783D02*
X125285595Y-46476545D01*
X125285595Y-46476545D02*
X125333214Y-46381307D01*
X125333214Y-46381307D02*
X125380833Y-46333688D01*
X125380833Y-46333688D02*
X125476071Y-46286069D01*
X125476071Y-46286069D02*
X125714166Y-46286069D01*
X125714166Y-46286069D02*
X125857023Y-46333688D01*
X126237976Y-46381307D02*
X126285595Y-46333688D01*
X126285595Y-46333688D02*
X126380833Y-46286069D01*
X126380833Y-46286069D02*
X126618928Y-46286069D01*
X126618928Y-46286069D02*
X126714166Y-46333688D01*
X126714166Y-46333688D02*
X126761785Y-46381307D01*
X126761785Y-46381307D02*
X126809404Y-46476545D01*
X126809404Y-46476545D02*
X126809404Y-46571783D01*
X126809404Y-46571783D02*
X126761785Y-46714640D01*
X126761785Y-46714640D02*
X126190357Y-47286069D01*
X126190357Y-47286069D02*
X126809404Y-47286069D01*
X171839166Y-99941069D02*
X171505833Y-99464878D01*
X171267738Y-99941069D02*
X171267738Y-98941069D01*
X171267738Y-98941069D02*
X171648690Y-98941069D01*
X171648690Y-98941069D02*
X171743928Y-98988688D01*
X171743928Y-98988688D02*
X171791547Y-99036307D01*
X171791547Y-99036307D02*
X171839166Y-99131545D01*
X171839166Y-99131545D02*
X171839166Y-99274402D01*
X171839166Y-99274402D02*
X171791547Y-99369640D01*
X171791547Y-99369640D02*
X171743928Y-99417259D01*
X171743928Y-99417259D02*
X171648690Y-99464878D01*
X171648690Y-99464878D02*
X171267738Y-99464878D01*
X172267738Y-99417259D02*
X172601071Y-99417259D01*
X172743928Y-99941069D02*
X172267738Y-99941069D01*
X172267738Y-99941069D02*
X172267738Y-98941069D01*
X172267738Y-98941069D02*
X172743928Y-98941069D01*
X173505833Y-99417259D02*
X173172500Y-99417259D01*
X173172500Y-99941069D02*
X173172500Y-98941069D01*
X173172500Y-98941069D02*
X173648690Y-98941069D01*
X174172500Y-98941069D02*
X174172500Y-99179164D01*
X173934405Y-99083926D02*
X174172500Y-99179164D01*
X174172500Y-99179164D02*
X174410595Y-99083926D01*
X174029643Y-99369640D02*
X174172500Y-99179164D01*
X174172500Y-99179164D02*
X174315357Y-99369640D01*
X174934405Y-98941069D02*
X174934405Y-99179164D01*
X174696310Y-99083926D02*
X174934405Y-99179164D01*
X174934405Y-99179164D02*
X175172500Y-99083926D01*
X174791548Y-99369640D02*
X174934405Y-99179164D01*
X174934405Y-99179164D02*
X175077262Y-99369640D01*
X115739166Y-80941069D02*
X115405833Y-80464878D01*
X115167738Y-80941069D02*
X115167738Y-79941069D01*
X115167738Y-79941069D02*
X115548690Y-79941069D01*
X115548690Y-79941069D02*
X115643928Y-79988688D01*
X115643928Y-79988688D02*
X115691547Y-80036307D01*
X115691547Y-80036307D02*
X115739166Y-80131545D01*
X115739166Y-80131545D02*
X115739166Y-80274402D01*
X115739166Y-80274402D02*
X115691547Y-80369640D01*
X115691547Y-80369640D02*
X115643928Y-80417259D01*
X115643928Y-80417259D02*
X115548690Y-80464878D01*
X115548690Y-80464878D02*
X115167738Y-80464878D01*
X116167738Y-80417259D02*
X116501071Y-80417259D01*
X116643928Y-80941069D02*
X116167738Y-80941069D01*
X116167738Y-80941069D02*
X116167738Y-79941069D01*
X116167738Y-79941069D02*
X116643928Y-79941069D01*
X117405833Y-80417259D02*
X117072500Y-80417259D01*
X117072500Y-80941069D02*
X117072500Y-79941069D01*
X117072500Y-79941069D02*
X117548690Y-79941069D01*
X118072500Y-79941069D02*
X118072500Y-80179164D01*
X117834405Y-80083926D02*
X118072500Y-80179164D01*
X118072500Y-80179164D02*
X118310595Y-80083926D01*
X117929643Y-80369640D02*
X118072500Y-80179164D01*
X118072500Y-80179164D02*
X118215357Y-80369640D01*
X118834405Y-79941069D02*
X118834405Y-80179164D01*
X118596310Y-80083926D02*
X118834405Y-80179164D01*
X118834405Y-80179164D02*
X119072500Y-80083926D01*
X118691548Y-80369640D02*
X118834405Y-80179164D01*
X118834405Y-80179164D02*
X118977262Y-80369640D01*
X152839166Y-76241069D02*
X152505833Y-75764878D01*
X152267738Y-76241069D02*
X152267738Y-75241069D01*
X152267738Y-75241069D02*
X152648690Y-75241069D01*
X152648690Y-75241069D02*
X152743928Y-75288688D01*
X152743928Y-75288688D02*
X152791547Y-75336307D01*
X152791547Y-75336307D02*
X152839166Y-75431545D01*
X152839166Y-75431545D02*
X152839166Y-75574402D01*
X152839166Y-75574402D02*
X152791547Y-75669640D01*
X152791547Y-75669640D02*
X152743928Y-75717259D01*
X152743928Y-75717259D02*
X152648690Y-75764878D01*
X152648690Y-75764878D02*
X152267738Y-75764878D01*
X153267738Y-75717259D02*
X153601071Y-75717259D01*
X153743928Y-76241069D02*
X153267738Y-76241069D01*
X153267738Y-76241069D02*
X153267738Y-75241069D01*
X153267738Y-75241069D02*
X153743928Y-75241069D01*
X154505833Y-75717259D02*
X154172500Y-75717259D01*
X154172500Y-76241069D02*
X154172500Y-75241069D01*
X154172500Y-75241069D02*
X154648690Y-75241069D01*
X155172500Y-75241069D02*
X155172500Y-75479164D01*
X154934405Y-75383926D02*
X155172500Y-75479164D01*
X155172500Y-75479164D02*
X155410595Y-75383926D01*
X155029643Y-75669640D02*
X155172500Y-75479164D01*
X155172500Y-75479164D02*
X155315357Y-75669640D01*
X155934405Y-75241069D02*
X155934405Y-75479164D01*
X155696310Y-75383926D02*
X155934405Y-75479164D01*
X155934405Y-75479164D02*
X156172500Y-75383926D01*
X155791548Y-75669640D02*
X155934405Y-75479164D01*
X155934405Y-75479164D02*
X156077262Y-75669640D01*
X192739166Y-49941069D02*
X192405833Y-49464878D01*
X192167738Y-49941069D02*
X192167738Y-48941069D01*
X192167738Y-48941069D02*
X192548690Y-48941069D01*
X192548690Y-48941069D02*
X192643928Y-48988688D01*
X192643928Y-48988688D02*
X192691547Y-49036307D01*
X192691547Y-49036307D02*
X192739166Y-49131545D01*
X192739166Y-49131545D02*
X192739166Y-49274402D01*
X192739166Y-49274402D02*
X192691547Y-49369640D01*
X192691547Y-49369640D02*
X192643928Y-49417259D01*
X192643928Y-49417259D02*
X192548690Y-49464878D01*
X192548690Y-49464878D02*
X192167738Y-49464878D01*
X193167738Y-49417259D02*
X193501071Y-49417259D01*
X193643928Y-49941069D02*
X193167738Y-49941069D01*
X193167738Y-49941069D02*
X193167738Y-48941069D01*
X193167738Y-48941069D02*
X193643928Y-48941069D01*
X194405833Y-49417259D02*
X194072500Y-49417259D01*
X194072500Y-49941069D02*
X194072500Y-48941069D01*
X194072500Y-48941069D02*
X194548690Y-48941069D01*
X195072500Y-48941069D02*
X195072500Y-49179164D01*
X194834405Y-49083926D02*
X195072500Y-49179164D01*
X195072500Y-49179164D02*
X195310595Y-49083926D01*
X194929643Y-49369640D02*
X195072500Y-49179164D01*
X195072500Y-49179164D02*
X195215357Y-49369640D01*
X195834405Y-48941069D02*
X195834405Y-49179164D01*
X195596310Y-49083926D02*
X195834405Y-49179164D01*
X195834405Y-49179164D02*
X196072500Y-49083926D01*
X195691548Y-49369640D02*
X195834405Y-49179164D01*
X195834405Y-49179164D02*
X195977262Y-49369640D01*
X134839166Y-57141069D02*
X134505833Y-56664878D01*
X134267738Y-57141069D02*
X134267738Y-56141069D01*
X134267738Y-56141069D02*
X134648690Y-56141069D01*
X134648690Y-56141069D02*
X134743928Y-56188688D01*
X134743928Y-56188688D02*
X134791547Y-56236307D01*
X134791547Y-56236307D02*
X134839166Y-56331545D01*
X134839166Y-56331545D02*
X134839166Y-56474402D01*
X134839166Y-56474402D02*
X134791547Y-56569640D01*
X134791547Y-56569640D02*
X134743928Y-56617259D01*
X134743928Y-56617259D02*
X134648690Y-56664878D01*
X134648690Y-56664878D02*
X134267738Y-56664878D01*
X135267738Y-56617259D02*
X135601071Y-56617259D01*
X135743928Y-57141069D02*
X135267738Y-57141069D01*
X135267738Y-57141069D02*
X135267738Y-56141069D01*
X135267738Y-56141069D02*
X135743928Y-56141069D01*
X136505833Y-56617259D02*
X136172500Y-56617259D01*
X136172500Y-57141069D02*
X136172500Y-56141069D01*
X136172500Y-56141069D02*
X136648690Y-56141069D01*
X137172500Y-56141069D02*
X137172500Y-56379164D01*
X136934405Y-56283926D02*
X137172500Y-56379164D01*
X137172500Y-56379164D02*
X137410595Y-56283926D01*
X137029643Y-56569640D02*
X137172500Y-56379164D01*
X137172500Y-56379164D02*
X137315357Y-56569640D01*
X137934405Y-56141069D02*
X137934405Y-56379164D01*
X137696310Y-56283926D02*
X137934405Y-56379164D01*
X137934405Y-56379164D02*
X138172500Y-56283926D01*
X137791548Y-56569640D02*
X137934405Y-56379164D01*
X137934405Y-56379164D02*
X138077262Y-56569640D01*
X206039166Y-104341069D02*
X205705833Y-103864878D01*
X205467738Y-104341069D02*
X205467738Y-103341069D01*
X205467738Y-103341069D02*
X205848690Y-103341069D01*
X205848690Y-103341069D02*
X205943928Y-103388688D01*
X205943928Y-103388688D02*
X205991547Y-103436307D01*
X205991547Y-103436307D02*
X206039166Y-103531545D01*
X206039166Y-103531545D02*
X206039166Y-103674402D01*
X206039166Y-103674402D02*
X205991547Y-103769640D01*
X205991547Y-103769640D02*
X205943928Y-103817259D01*
X205943928Y-103817259D02*
X205848690Y-103864878D01*
X205848690Y-103864878D02*
X205467738Y-103864878D01*
X206467738Y-103817259D02*
X206801071Y-103817259D01*
X206943928Y-104341069D02*
X206467738Y-104341069D01*
X206467738Y-104341069D02*
X206467738Y-103341069D01*
X206467738Y-103341069D02*
X206943928Y-103341069D01*
X207705833Y-103817259D02*
X207372500Y-103817259D01*
X207372500Y-104341069D02*
X207372500Y-103341069D01*
X207372500Y-103341069D02*
X207848690Y-103341069D01*
X208372500Y-103341069D02*
X208372500Y-103579164D01*
X208134405Y-103483926D02*
X208372500Y-103579164D01*
X208372500Y-103579164D02*
X208610595Y-103483926D01*
X208229643Y-103769640D02*
X208372500Y-103579164D01*
X208372500Y-103579164D02*
X208515357Y-103769640D01*
X209134405Y-103341069D02*
X209134405Y-103579164D01*
X208896310Y-103483926D02*
X209134405Y-103579164D01*
X209134405Y-103579164D02*
X209372500Y-103483926D01*
X208991548Y-103769640D02*
X209134405Y-103579164D01*
X209134405Y-103579164D02*
X209277262Y-103769640D01*
X213978868Y-89394140D02*
X213902678Y-89356045D01*
X213902678Y-89356045D02*
X213788392Y-89356045D01*
X213788392Y-89356045D02*
X213674106Y-89394140D01*
X213674106Y-89394140D02*
X213597916Y-89470330D01*
X213597916Y-89470330D02*
X213559821Y-89546521D01*
X213559821Y-89546521D02*
X213521725Y-89698902D01*
X213521725Y-89698902D02*
X213521725Y-89813188D01*
X213521725Y-89813188D02*
X213559821Y-89965569D01*
X213559821Y-89965569D02*
X213597916Y-90041759D01*
X213597916Y-90041759D02*
X213674106Y-90117950D01*
X213674106Y-90117950D02*
X213788392Y-90156045D01*
X213788392Y-90156045D02*
X213864583Y-90156045D01*
X213864583Y-90156045D02*
X213978868Y-90117950D01*
X213978868Y-90117950D02*
X214016964Y-90079854D01*
X214016964Y-90079854D02*
X214016964Y-89813188D01*
X214016964Y-89813188D02*
X213864583Y-89813188D01*
X214359821Y-90156045D02*
X214359821Y-89356045D01*
X214359821Y-89356045D02*
X214664583Y-89356045D01*
X214664583Y-89356045D02*
X214740773Y-89394140D01*
X214740773Y-89394140D02*
X214778868Y-89432235D01*
X214778868Y-89432235D02*
X214816964Y-89508426D01*
X214816964Y-89508426D02*
X214816964Y-89622711D01*
X214816964Y-89622711D02*
X214778868Y-89698902D01*
X214778868Y-89698902D02*
X214740773Y-89736997D01*
X214740773Y-89736997D02*
X214664583Y-89775092D01*
X214664583Y-89775092D02*
X214359821Y-89775092D01*
X215578868Y-90156045D02*
X215121725Y-90156045D01*
X215350297Y-90156045D02*
X215350297Y-89356045D01*
X215350297Y-89356045D02*
X215274106Y-89470330D01*
X215274106Y-89470330D02*
X215197916Y-89546521D01*
X215197916Y-89546521D02*
X215121725Y-89584616D01*
X215959821Y-90156045D02*
X216112202Y-90156045D01*
X216112202Y-90156045D02*
X216188392Y-90117950D01*
X216188392Y-90117950D02*
X216226488Y-90079854D01*
X216226488Y-90079854D02*
X216302678Y-89965569D01*
X216302678Y-89965569D02*
X216340773Y-89813188D01*
X216340773Y-89813188D02*
X216340773Y-89508426D01*
X216340773Y-89508426D02*
X216302678Y-89432235D01*
X216302678Y-89432235D02*
X216264583Y-89394140D01*
X216264583Y-89394140D02*
X216188392Y-89356045D01*
X216188392Y-89356045D02*
X216036011Y-89356045D01*
X216036011Y-89356045D02*
X215959821Y-89394140D01*
X215959821Y-89394140D02*
X215921726Y-89432235D01*
X215921726Y-89432235D02*
X215883630Y-89508426D01*
X215883630Y-89508426D02*
X215883630Y-89698902D01*
X215883630Y-89698902D02*
X215921726Y-89775092D01*
X215921726Y-89775092D02*
X215959821Y-89813188D01*
X215959821Y-89813188D02*
X216036011Y-89851283D01*
X216036011Y-89851283D02*
X216188392Y-89851283D01*
X216188392Y-89851283D02*
X216264583Y-89813188D01*
X216264583Y-89813188D02*
X216302678Y-89775092D01*
X216302678Y-89775092D02*
X216340773Y-89698902D01*
X202779821Y-53824140D02*
X202703631Y-53786045D01*
X202703631Y-53786045D02*
X202589345Y-53786045D01*
X202589345Y-53786045D02*
X202475059Y-53824140D01*
X202475059Y-53824140D02*
X202398869Y-53900330D01*
X202398869Y-53900330D02*
X202360774Y-53976521D01*
X202360774Y-53976521D02*
X202322678Y-54128902D01*
X202322678Y-54128902D02*
X202322678Y-54243188D01*
X202322678Y-54243188D02*
X202360774Y-54395569D01*
X202360774Y-54395569D02*
X202398869Y-54471759D01*
X202398869Y-54471759D02*
X202475059Y-54547950D01*
X202475059Y-54547950D02*
X202589345Y-54586045D01*
X202589345Y-54586045D02*
X202665536Y-54586045D01*
X202665536Y-54586045D02*
X202779821Y-54547950D01*
X202779821Y-54547950D02*
X202817917Y-54509854D01*
X202817917Y-54509854D02*
X202817917Y-54243188D01*
X202817917Y-54243188D02*
X202665536Y-54243188D01*
X203160774Y-54586045D02*
X203160774Y-53786045D01*
X203160774Y-53786045D02*
X203465536Y-53786045D01*
X203465536Y-53786045D02*
X203541726Y-53824140D01*
X203541726Y-53824140D02*
X203579821Y-53862235D01*
X203579821Y-53862235D02*
X203617917Y-53938426D01*
X203617917Y-53938426D02*
X203617917Y-54052711D01*
X203617917Y-54052711D02*
X203579821Y-54128902D01*
X203579821Y-54128902D02*
X203541726Y-54166997D01*
X203541726Y-54166997D02*
X203465536Y-54205092D01*
X203465536Y-54205092D02*
X203160774Y-54205092D01*
X204379821Y-54586045D02*
X203922678Y-54586045D01*
X204151250Y-54586045D02*
X204151250Y-53786045D01*
X204151250Y-53786045D02*
X204075059Y-53900330D01*
X204075059Y-53900330D02*
X203998869Y-53976521D01*
X203998869Y-53976521D02*
X203922678Y-54014616D01*
X213978868Y-84324140D02*
X213902678Y-84286045D01*
X213902678Y-84286045D02*
X213788392Y-84286045D01*
X213788392Y-84286045D02*
X213674106Y-84324140D01*
X213674106Y-84324140D02*
X213597916Y-84400330D01*
X213597916Y-84400330D02*
X213559821Y-84476521D01*
X213559821Y-84476521D02*
X213521725Y-84628902D01*
X213521725Y-84628902D02*
X213521725Y-84743188D01*
X213521725Y-84743188D02*
X213559821Y-84895569D01*
X213559821Y-84895569D02*
X213597916Y-84971759D01*
X213597916Y-84971759D02*
X213674106Y-85047950D01*
X213674106Y-85047950D02*
X213788392Y-85086045D01*
X213788392Y-85086045D02*
X213864583Y-85086045D01*
X213864583Y-85086045D02*
X213978868Y-85047950D01*
X213978868Y-85047950D02*
X214016964Y-85009854D01*
X214016964Y-85009854D02*
X214016964Y-84743188D01*
X214016964Y-84743188D02*
X213864583Y-84743188D01*
X214359821Y-85086045D02*
X214359821Y-84286045D01*
X214359821Y-84286045D02*
X214664583Y-84286045D01*
X214664583Y-84286045D02*
X214740773Y-84324140D01*
X214740773Y-84324140D02*
X214778868Y-84362235D01*
X214778868Y-84362235D02*
X214816964Y-84438426D01*
X214816964Y-84438426D02*
X214816964Y-84552711D01*
X214816964Y-84552711D02*
X214778868Y-84628902D01*
X214778868Y-84628902D02*
X214740773Y-84666997D01*
X214740773Y-84666997D02*
X214664583Y-84705092D01*
X214664583Y-84705092D02*
X214359821Y-84705092D01*
X215121725Y-84362235D02*
X215159821Y-84324140D01*
X215159821Y-84324140D02*
X215236011Y-84286045D01*
X215236011Y-84286045D02*
X215426487Y-84286045D01*
X215426487Y-84286045D02*
X215502678Y-84324140D01*
X215502678Y-84324140D02*
X215540773Y-84362235D01*
X215540773Y-84362235D02*
X215578868Y-84438426D01*
X215578868Y-84438426D02*
X215578868Y-84514616D01*
X215578868Y-84514616D02*
X215540773Y-84628902D01*
X215540773Y-84628902D02*
X215083630Y-85086045D01*
X215083630Y-85086045D02*
X215578868Y-85086045D01*
X216340773Y-85086045D02*
X215883630Y-85086045D01*
X216112202Y-85086045D02*
X216112202Y-84286045D01*
X216112202Y-84286045D02*
X216036011Y-84400330D01*
X216036011Y-84400330D02*
X215959821Y-84476521D01*
X215959821Y-84476521D02*
X215883630Y-84514616D01*
X202779821Y-58914140D02*
X202703631Y-58876045D01*
X202703631Y-58876045D02*
X202589345Y-58876045D01*
X202589345Y-58876045D02*
X202475059Y-58914140D01*
X202475059Y-58914140D02*
X202398869Y-58990330D01*
X202398869Y-58990330D02*
X202360774Y-59066521D01*
X202360774Y-59066521D02*
X202322678Y-59218902D01*
X202322678Y-59218902D02*
X202322678Y-59333188D01*
X202322678Y-59333188D02*
X202360774Y-59485569D01*
X202360774Y-59485569D02*
X202398869Y-59561759D01*
X202398869Y-59561759D02*
X202475059Y-59637950D01*
X202475059Y-59637950D02*
X202589345Y-59676045D01*
X202589345Y-59676045D02*
X202665536Y-59676045D01*
X202665536Y-59676045D02*
X202779821Y-59637950D01*
X202779821Y-59637950D02*
X202817917Y-59599854D01*
X202817917Y-59599854D02*
X202817917Y-59333188D01*
X202817917Y-59333188D02*
X202665536Y-59333188D01*
X203160774Y-59676045D02*
X203160774Y-58876045D01*
X203160774Y-58876045D02*
X203465536Y-58876045D01*
X203465536Y-58876045D02*
X203541726Y-58914140D01*
X203541726Y-58914140D02*
X203579821Y-58952235D01*
X203579821Y-58952235D02*
X203617917Y-59028426D01*
X203617917Y-59028426D02*
X203617917Y-59142711D01*
X203617917Y-59142711D02*
X203579821Y-59218902D01*
X203579821Y-59218902D02*
X203541726Y-59256997D01*
X203541726Y-59256997D02*
X203465536Y-59295092D01*
X203465536Y-59295092D02*
X203160774Y-59295092D01*
X203922678Y-58952235D02*
X203960774Y-58914140D01*
X203960774Y-58914140D02*
X204036964Y-58876045D01*
X204036964Y-58876045D02*
X204227440Y-58876045D01*
X204227440Y-58876045D02*
X204303631Y-58914140D01*
X204303631Y-58914140D02*
X204341726Y-58952235D01*
X204341726Y-58952235D02*
X204379821Y-59028426D01*
X204379821Y-59028426D02*
X204379821Y-59104616D01*
X204379821Y-59104616D02*
X204341726Y-59218902D01*
X204341726Y-59218902D02*
X203884583Y-59676045D01*
X203884583Y-59676045D02*
X204379821Y-59676045D01*
X213978868Y-97014140D02*
X213902678Y-96976045D01*
X213902678Y-96976045D02*
X213788392Y-96976045D01*
X213788392Y-96976045D02*
X213674106Y-97014140D01*
X213674106Y-97014140D02*
X213597916Y-97090330D01*
X213597916Y-97090330D02*
X213559821Y-97166521D01*
X213559821Y-97166521D02*
X213521725Y-97318902D01*
X213521725Y-97318902D02*
X213521725Y-97433188D01*
X213521725Y-97433188D02*
X213559821Y-97585569D01*
X213559821Y-97585569D02*
X213597916Y-97661759D01*
X213597916Y-97661759D02*
X213674106Y-97737950D01*
X213674106Y-97737950D02*
X213788392Y-97776045D01*
X213788392Y-97776045D02*
X213864583Y-97776045D01*
X213864583Y-97776045D02*
X213978868Y-97737950D01*
X213978868Y-97737950D02*
X214016964Y-97699854D01*
X214016964Y-97699854D02*
X214016964Y-97433188D01*
X214016964Y-97433188D02*
X213864583Y-97433188D01*
X214359821Y-97776045D02*
X214359821Y-96976045D01*
X214359821Y-96976045D02*
X214664583Y-96976045D01*
X214664583Y-96976045D02*
X214740773Y-97014140D01*
X214740773Y-97014140D02*
X214778868Y-97052235D01*
X214778868Y-97052235D02*
X214816964Y-97128426D01*
X214816964Y-97128426D02*
X214816964Y-97242711D01*
X214816964Y-97242711D02*
X214778868Y-97318902D01*
X214778868Y-97318902D02*
X214740773Y-97356997D01*
X214740773Y-97356997D02*
X214664583Y-97395092D01*
X214664583Y-97395092D02*
X214359821Y-97395092D01*
X215578868Y-97776045D02*
X215121725Y-97776045D01*
X215350297Y-97776045D02*
X215350297Y-96976045D01*
X215350297Y-96976045D02*
X215274106Y-97090330D01*
X215274106Y-97090330D02*
X215197916Y-97166521D01*
X215197916Y-97166521D02*
X215121725Y-97204616D01*
X215845535Y-96976045D02*
X216378869Y-96976045D01*
X216378869Y-96976045D02*
X216036011Y-97776045D01*
X214671726Y-94474140D02*
X214595536Y-94436045D01*
X214595536Y-94436045D02*
X214481250Y-94436045D01*
X214481250Y-94436045D02*
X214366964Y-94474140D01*
X214366964Y-94474140D02*
X214290774Y-94550330D01*
X214290774Y-94550330D02*
X214252679Y-94626521D01*
X214252679Y-94626521D02*
X214214583Y-94778902D01*
X214214583Y-94778902D02*
X214214583Y-94893188D01*
X214214583Y-94893188D02*
X214252679Y-95045569D01*
X214252679Y-95045569D02*
X214290774Y-95121759D01*
X214290774Y-95121759D02*
X214366964Y-95197950D01*
X214366964Y-95197950D02*
X214481250Y-95236045D01*
X214481250Y-95236045D02*
X214557441Y-95236045D01*
X214557441Y-95236045D02*
X214671726Y-95197950D01*
X214671726Y-95197950D02*
X214709822Y-95159854D01*
X214709822Y-95159854D02*
X214709822Y-94893188D01*
X214709822Y-94893188D02*
X214557441Y-94893188D01*
X215052679Y-95236045D02*
X215052679Y-94436045D01*
X215052679Y-94436045D02*
X215509822Y-95236045D01*
X215509822Y-95236045D02*
X215509822Y-94436045D01*
X215890774Y-95236045D02*
X215890774Y-94436045D01*
X215890774Y-94436045D02*
X216081250Y-94436045D01*
X216081250Y-94436045D02*
X216195536Y-94474140D01*
X216195536Y-94474140D02*
X216271726Y-94550330D01*
X216271726Y-94550330D02*
X216309821Y-94626521D01*
X216309821Y-94626521D02*
X216347917Y-94778902D01*
X216347917Y-94778902D02*
X216347917Y-94893188D01*
X216347917Y-94893188D02*
X216309821Y-95045569D01*
X216309821Y-95045569D02*
X216271726Y-95121759D01*
X216271726Y-95121759D02*
X216195536Y-95197950D01*
X216195536Y-95197950D02*
X216081250Y-95236045D01*
X216081250Y-95236045D02*
X215890774Y-95236045D01*
X213521726Y-69607473D02*
X213902679Y-69607473D01*
X213445536Y-69836045D02*
X213712203Y-69036045D01*
X213712203Y-69036045D02*
X213978869Y-69836045D01*
X214664583Y-69074140D02*
X214588393Y-69036045D01*
X214588393Y-69036045D02*
X214474107Y-69036045D01*
X214474107Y-69036045D02*
X214359821Y-69074140D01*
X214359821Y-69074140D02*
X214283631Y-69150330D01*
X214283631Y-69150330D02*
X214245536Y-69226521D01*
X214245536Y-69226521D02*
X214207440Y-69378902D01*
X214207440Y-69378902D02*
X214207440Y-69493188D01*
X214207440Y-69493188D02*
X214245536Y-69645569D01*
X214245536Y-69645569D02*
X214283631Y-69721759D01*
X214283631Y-69721759D02*
X214359821Y-69797950D01*
X214359821Y-69797950D02*
X214474107Y-69836045D01*
X214474107Y-69836045D02*
X214550298Y-69836045D01*
X214550298Y-69836045D02*
X214664583Y-69797950D01*
X214664583Y-69797950D02*
X214702679Y-69759854D01*
X214702679Y-69759854D02*
X214702679Y-69493188D01*
X214702679Y-69493188D02*
X214550298Y-69493188D01*
X215045536Y-69836045D02*
X215045536Y-69036045D01*
X215045536Y-69036045D02*
X215502679Y-69836045D01*
X215502679Y-69836045D02*
X215502679Y-69036045D01*
X215883631Y-69836045D02*
X215883631Y-69036045D01*
X215883631Y-69036045D02*
X216074107Y-69036045D01*
X216074107Y-69036045D02*
X216188393Y-69074140D01*
X216188393Y-69074140D02*
X216264583Y-69150330D01*
X216264583Y-69150330D02*
X216302678Y-69226521D01*
X216302678Y-69226521D02*
X216340774Y-69378902D01*
X216340774Y-69378902D02*
X216340774Y-69493188D01*
X216340774Y-69493188D02*
X216302678Y-69645569D01*
X216302678Y-69645569D02*
X216264583Y-69721759D01*
X216264583Y-69721759D02*
X216188393Y-69797950D01*
X216188393Y-69797950D02*
X216074107Y-69836045D01*
X216074107Y-69836045D02*
X215883631Y-69836045D01*
X202741726Y-56374140D02*
X202665536Y-56336045D01*
X202665536Y-56336045D02*
X202551250Y-56336045D01*
X202551250Y-56336045D02*
X202436964Y-56374140D01*
X202436964Y-56374140D02*
X202360774Y-56450330D01*
X202360774Y-56450330D02*
X202322679Y-56526521D01*
X202322679Y-56526521D02*
X202284583Y-56678902D01*
X202284583Y-56678902D02*
X202284583Y-56793188D01*
X202284583Y-56793188D02*
X202322679Y-56945569D01*
X202322679Y-56945569D02*
X202360774Y-57021759D01*
X202360774Y-57021759D02*
X202436964Y-57097950D01*
X202436964Y-57097950D02*
X202551250Y-57136045D01*
X202551250Y-57136045D02*
X202627441Y-57136045D01*
X202627441Y-57136045D02*
X202741726Y-57097950D01*
X202741726Y-57097950D02*
X202779822Y-57059854D01*
X202779822Y-57059854D02*
X202779822Y-56793188D01*
X202779822Y-56793188D02*
X202627441Y-56793188D01*
X203122679Y-57136045D02*
X203122679Y-56336045D01*
X203122679Y-56336045D02*
X203579822Y-57136045D01*
X203579822Y-57136045D02*
X203579822Y-56336045D01*
X203960774Y-57136045D02*
X203960774Y-56336045D01*
X203960774Y-56336045D02*
X204151250Y-56336045D01*
X204151250Y-56336045D02*
X204265536Y-56374140D01*
X204265536Y-56374140D02*
X204341726Y-56450330D01*
X204341726Y-56450330D02*
X204379821Y-56526521D01*
X204379821Y-56526521D02*
X204417917Y-56678902D01*
X204417917Y-56678902D02*
X204417917Y-56793188D01*
X204417917Y-56793188D02*
X204379821Y-56945569D01*
X204379821Y-56945569D02*
X204341726Y-57021759D01*
X204341726Y-57021759D02*
X204265536Y-57097950D01*
X204265536Y-57097950D02*
X204151250Y-57136045D01*
X204151250Y-57136045D02*
X203960774Y-57136045D01*
X202741726Y-69074140D02*
X202665536Y-69036045D01*
X202665536Y-69036045D02*
X202551250Y-69036045D01*
X202551250Y-69036045D02*
X202436964Y-69074140D01*
X202436964Y-69074140D02*
X202360774Y-69150330D01*
X202360774Y-69150330D02*
X202322679Y-69226521D01*
X202322679Y-69226521D02*
X202284583Y-69378902D01*
X202284583Y-69378902D02*
X202284583Y-69493188D01*
X202284583Y-69493188D02*
X202322679Y-69645569D01*
X202322679Y-69645569D02*
X202360774Y-69721759D01*
X202360774Y-69721759D02*
X202436964Y-69797950D01*
X202436964Y-69797950D02*
X202551250Y-69836045D01*
X202551250Y-69836045D02*
X202627441Y-69836045D01*
X202627441Y-69836045D02*
X202741726Y-69797950D01*
X202741726Y-69797950D02*
X202779822Y-69759854D01*
X202779822Y-69759854D02*
X202779822Y-69493188D01*
X202779822Y-69493188D02*
X202627441Y-69493188D01*
X203122679Y-69836045D02*
X203122679Y-69036045D01*
X203122679Y-69036045D02*
X203579822Y-69836045D01*
X203579822Y-69836045D02*
X203579822Y-69036045D01*
X203960774Y-69836045D02*
X203960774Y-69036045D01*
X203960774Y-69036045D02*
X204151250Y-69036045D01*
X204151250Y-69036045D02*
X204265536Y-69074140D01*
X204265536Y-69074140D02*
X204341726Y-69150330D01*
X204341726Y-69150330D02*
X204379821Y-69226521D01*
X204379821Y-69226521D02*
X204417917Y-69378902D01*
X204417917Y-69378902D02*
X204417917Y-69493188D01*
X204417917Y-69493188D02*
X204379821Y-69645569D01*
X204379821Y-69645569D02*
X204341726Y-69721759D01*
X204341726Y-69721759D02*
X204265536Y-69797950D01*
X204265536Y-69797950D02*
X204151250Y-69836045D01*
X204151250Y-69836045D02*
X203960774Y-69836045D01*
X202748868Y-99554140D02*
X202672678Y-99516045D01*
X202672678Y-99516045D02*
X202558392Y-99516045D01*
X202558392Y-99516045D02*
X202444106Y-99554140D01*
X202444106Y-99554140D02*
X202367916Y-99630330D01*
X202367916Y-99630330D02*
X202329821Y-99706521D01*
X202329821Y-99706521D02*
X202291725Y-99858902D01*
X202291725Y-99858902D02*
X202291725Y-99973188D01*
X202291725Y-99973188D02*
X202329821Y-100125569D01*
X202329821Y-100125569D02*
X202367916Y-100201759D01*
X202367916Y-100201759D02*
X202444106Y-100277950D01*
X202444106Y-100277950D02*
X202558392Y-100316045D01*
X202558392Y-100316045D02*
X202634583Y-100316045D01*
X202634583Y-100316045D02*
X202748868Y-100277950D01*
X202748868Y-100277950D02*
X202786964Y-100239854D01*
X202786964Y-100239854D02*
X202786964Y-99973188D01*
X202786964Y-99973188D02*
X202634583Y-99973188D01*
X203129821Y-100316045D02*
X203129821Y-99516045D01*
X203129821Y-99516045D02*
X203434583Y-99516045D01*
X203434583Y-99516045D02*
X203510773Y-99554140D01*
X203510773Y-99554140D02*
X203548868Y-99592235D01*
X203548868Y-99592235D02*
X203586964Y-99668426D01*
X203586964Y-99668426D02*
X203586964Y-99782711D01*
X203586964Y-99782711D02*
X203548868Y-99858902D01*
X203548868Y-99858902D02*
X203510773Y-99896997D01*
X203510773Y-99896997D02*
X203434583Y-99935092D01*
X203434583Y-99935092D02*
X203129821Y-99935092D01*
X204348868Y-100316045D02*
X203891725Y-100316045D01*
X204120297Y-100316045D02*
X204120297Y-99516045D01*
X204120297Y-99516045D02*
X204044106Y-99630330D01*
X204044106Y-99630330D02*
X203967916Y-99706521D01*
X203967916Y-99706521D02*
X203891725Y-99744616D01*
X205072678Y-99516045D02*
X204691726Y-99516045D01*
X204691726Y-99516045D02*
X204653630Y-99896997D01*
X204653630Y-99896997D02*
X204691726Y-99858902D01*
X204691726Y-99858902D02*
X204767916Y-99820807D01*
X204767916Y-99820807D02*
X204958392Y-99820807D01*
X204958392Y-99820807D02*
X205034583Y-99858902D01*
X205034583Y-99858902D02*
X205072678Y-99896997D01*
X205072678Y-99896997D02*
X205110773Y-99973188D01*
X205110773Y-99973188D02*
X205110773Y-100163664D01*
X205110773Y-100163664D02*
X205072678Y-100239854D01*
X205072678Y-100239854D02*
X205034583Y-100277950D01*
X205034583Y-100277950D02*
X204958392Y-100316045D01*
X204958392Y-100316045D02*
X204767916Y-100316045D01*
X204767916Y-100316045D02*
X204691726Y-100277950D01*
X204691726Y-100277950D02*
X204653630Y-100239854D01*
X214440773Y-61416045D02*
X214936011Y-61416045D01*
X214936011Y-61416045D02*
X214669345Y-61720807D01*
X214669345Y-61720807D02*
X214783630Y-61720807D01*
X214783630Y-61720807D02*
X214859821Y-61758902D01*
X214859821Y-61758902D02*
X214897916Y-61796997D01*
X214897916Y-61796997D02*
X214936011Y-61873188D01*
X214936011Y-61873188D02*
X214936011Y-62063664D01*
X214936011Y-62063664D02*
X214897916Y-62139854D01*
X214897916Y-62139854D02*
X214859821Y-62177950D01*
X214859821Y-62177950D02*
X214783630Y-62216045D01*
X214783630Y-62216045D02*
X214555059Y-62216045D01*
X214555059Y-62216045D02*
X214478868Y-62177950D01*
X214478868Y-62177950D02*
X214440773Y-62139854D01*
X215164583Y-61416045D02*
X215431250Y-62216045D01*
X215431250Y-62216045D02*
X215697916Y-61416045D01*
X215888392Y-61416045D02*
X216383630Y-61416045D01*
X216383630Y-61416045D02*
X216116964Y-61720807D01*
X216116964Y-61720807D02*
X216231249Y-61720807D01*
X216231249Y-61720807D02*
X216307440Y-61758902D01*
X216307440Y-61758902D02*
X216345535Y-61796997D01*
X216345535Y-61796997D02*
X216383630Y-61873188D01*
X216383630Y-61873188D02*
X216383630Y-62063664D01*
X216383630Y-62063664D02*
X216345535Y-62139854D01*
X216345535Y-62139854D02*
X216307440Y-62177950D01*
X216307440Y-62177950D02*
X216231249Y-62216045D01*
X216231249Y-62216045D02*
X216002678Y-62216045D01*
X216002678Y-62216045D02*
X215926487Y-62177950D01*
X215926487Y-62177950D02*
X215888392Y-62139854D01*
X202779821Y-79234140D02*
X202703631Y-79196045D01*
X202703631Y-79196045D02*
X202589345Y-79196045D01*
X202589345Y-79196045D02*
X202475059Y-79234140D01*
X202475059Y-79234140D02*
X202398869Y-79310330D01*
X202398869Y-79310330D02*
X202360774Y-79386521D01*
X202360774Y-79386521D02*
X202322678Y-79538902D01*
X202322678Y-79538902D02*
X202322678Y-79653188D01*
X202322678Y-79653188D02*
X202360774Y-79805569D01*
X202360774Y-79805569D02*
X202398869Y-79881759D01*
X202398869Y-79881759D02*
X202475059Y-79957950D01*
X202475059Y-79957950D02*
X202589345Y-79996045D01*
X202589345Y-79996045D02*
X202665536Y-79996045D01*
X202665536Y-79996045D02*
X202779821Y-79957950D01*
X202779821Y-79957950D02*
X202817917Y-79919854D01*
X202817917Y-79919854D02*
X202817917Y-79653188D01*
X202817917Y-79653188D02*
X202665536Y-79653188D01*
X203160774Y-79996045D02*
X203160774Y-79196045D01*
X203160774Y-79196045D02*
X203465536Y-79196045D01*
X203465536Y-79196045D02*
X203541726Y-79234140D01*
X203541726Y-79234140D02*
X203579821Y-79272235D01*
X203579821Y-79272235D02*
X203617917Y-79348426D01*
X203617917Y-79348426D02*
X203617917Y-79462711D01*
X203617917Y-79462711D02*
X203579821Y-79538902D01*
X203579821Y-79538902D02*
X203541726Y-79576997D01*
X203541726Y-79576997D02*
X203465536Y-79615092D01*
X203465536Y-79615092D02*
X203160774Y-79615092D01*
X203998869Y-79996045D02*
X204151250Y-79996045D01*
X204151250Y-79996045D02*
X204227440Y-79957950D01*
X204227440Y-79957950D02*
X204265536Y-79919854D01*
X204265536Y-79919854D02*
X204341726Y-79805569D01*
X204341726Y-79805569D02*
X204379821Y-79653188D01*
X204379821Y-79653188D02*
X204379821Y-79348426D01*
X204379821Y-79348426D02*
X204341726Y-79272235D01*
X204341726Y-79272235D02*
X204303631Y-79234140D01*
X204303631Y-79234140D02*
X204227440Y-79196045D01*
X204227440Y-79196045D02*
X204075059Y-79196045D01*
X204075059Y-79196045D02*
X203998869Y-79234140D01*
X203998869Y-79234140D02*
X203960774Y-79272235D01*
X203960774Y-79272235D02*
X203922678Y-79348426D01*
X203922678Y-79348426D02*
X203922678Y-79538902D01*
X203922678Y-79538902D02*
X203960774Y-79615092D01*
X203960774Y-79615092D02*
X203998869Y-79653188D01*
X203998869Y-79653188D02*
X204075059Y-79691283D01*
X204075059Y-79691283D02*
X204227440Y-79691283D01*
X204227440Y-79691283D02*
X204303631Y-79653188D01*
X204303631Y-79653188D02*
X204341726Y-79615092D01*
X204341726Y-79615092D02*
X204379821Y-79538902D01*
X213978868Y-74154140D02*
X213902678Y-74116045D01*
X213902678Y-74116045D02*
X213788392Y-74116045D01*
X213788392Y-74116045D02*
X213674106Y-74154140D01*
X213674106Y-74154140D02*
X213597916Y-74230330D01*
X213597916Y-74230330D02*
X213559821Y-74306521D01*
X213559821Y-74306521D02*
X213521725Y-74458902D01*
X213521725Y-74458902D02*
X213521725Y-74573188D01*
X213521725Y-74573188D02*
X213559821Y-74725569D01*
X213559821Y-74725569D02*
X213597916Y-74801759D01*
X213597916Y-74801759D02*
X213674106Y-74877950D01*
X213674106Y-74877950D02*
X213788392Y-74916045D01*
X213788392Y-74916045D02*
X213864583Y-74916045D01*
X213864583Y-74916045D02*
X213978868Y-74877950D01*
X213978868Y-74877950D02*
X214016964Y-74839854D01*
X214016964Y-74839854D02*
X214016964Y-74573188D01*
X214016964Y-74573188D02*
X213864583Y-74573188D01*
X214359821Y-74916045D02*
X214359821Y-74116045D01*
X214359821Y-74116045D02*
X214664583Y-74116045D01*
X214664583Y-74116045D02*
X214740773Y-74154140D01*
X214740773Y-74154140D02*
X214778868Y-74192235D01*
X214778868Y-74192235D02*
X214816964Y-74268426D01*
X214816964Y-74268426D02*
X214816964Y-74382711D01*
X214816964Y-74382711D02*
X214778868Y-74458902D01*
X214778868Y-74458902D02*
X214740773Y-74496997D01*
X214740773Y-74496997D02*
X214664583Y-74535092D01*
X214664583Y-74535092D02*
X214359821Y-74535092D01*
X215121725Y-74192235D02*
X215159821Y-74154140D01*
X215159821Y-74154140D02*
X215236011Y-74116045D01*
X215236011Y-74116045D02*
X215426487Y-74116045D01*
X215426487Y-74116045D02*
X215502678Y-74154140D01*
X215502678Y-74154140D02*
X215540773Y-74192235D01*
X215540773Y-74192235D02*
X215578868Y-74268426D01*
X215578868Y-74268426D02*
X215578868Y-74344616D01*
X215578868Y-74344616D02*
X215540773Y-74458902D01*
X215540773Y-74458902D02*
X215083630Y-74916045D01*
X215083630Y-74916045D02*
X215578868Y-74916045D01*
X216264583Y-74116045D02*
X216112202Y-74116045D01*
X216112202Y-74116045D02*
X216036011Y-74154140D01*
X216036011Y-74154140D02*
X215997916Y-74192235D01*
X215997916Y-74192235D02*
X215921726Y-74306521D01*
X215921726Y-74306521D02*
X215883630Y-74458902D01*
X215883630Y-74458902D02*
X215883630Y-74763664D01*
X215883630Y-74763664D02*
X215921726Y-74839854D01*
X215921726Y-74839854D02*
X215959821Y-74877950D01*
X215959821Y-74877950D02*
X216036011Y-74916045D01*
X216036011Y-74916045D02*
X216188392Y-74916045D01*
X216188392Y-74916045D02*
X216264583Y-74877950D01*
X216264583Y-74877950D02*
X216302678Y-74839854D01*
X216302678Y-74839854D02*
X216340773Y-74763664D01*
X216340773Y-74763664D02*
X216340773Y-74573188D01*
X216340773Y-74573188D02*
X216302678Y-74496997D01*
X216302678Y-74496997D02*
X216264583Y-74458902D01*
X216264583Y-74458902D02*
X216188392Y-74420807D01*
X216188392Y-74420807D02*
X216036011Y-74420807D01*
X216036011Y-74420807D02*
X215959821Y-74458902D01*
X215959821Y-74458902D02*
X215921726Y-74496997D01*
X215921726Y-74496997D02*
X215883630Y-74573188D01*
X202779821Y-74124140D02*
X202703631Y-74086045D01*
X202703631Y-74086045D02*
X202589345Y-74086045D01*
X202589345Y-74086045D02*
X202475059Y-74124140D01*
X202475059Y-74124140D02*
X202398869Y-74200330D01*
X202398869Y-74200330D02*
X202360774Y-74276521D01*
X202360774Y-74276521D02*
X202322678Y-74428902D01*
X202322678Y-74428902D02*
X202322678Y-74543188D01*
X202322678Y-74543188D02*
X202360774Y-74695569D01*
X202360774Y-74695569D02*
X202398869Y-74771759D01*
X202398869Y-74771759D02*
X202475059Y-74847950D01*
X202475059Y-74847950D02*
X202589345Y-74886045D01*
X202589345Y-74886045D02*
X202665536Y-74886045D01*
X202665536Y-74886045D02*
X202779821Y-74847950D01*
X202779821Y-74847950D02*
X202817917Y-74809854D01*
X202817917Y-74809854D02*
X202817917Y-74543188D01*
X202817917Y-74543188D02*
X202665536Y-74543188D01*
X203160774Y-74886045D02*
X203160774Y-74086045D01*
X203160774Y-74086045D02*
X203465536Y-74086045D01*
X203465536Y-74086045D02*
X203541726Y-74124140D01*
X203541726Y-74124140D02*
X203579821Y-74162235D01*
X203579821Y-74162235D02*
X203617917Y-74238426D01*
X203617917Y-74238426D02*
X203617917Y-74352711D01*
X203617917Y-74352711D02*
X203579821Y-74428902D01*
X203579821Y-74428902D02*
X203541726Y-74466997D01*
X203541726Y-74466997D02*
X203465536Y-74505092D01*
X203465536Y-74505092D02*
X203160774Y-74505092D01*
X203884583Y-74086045D02*
X204417917Y-74086045D01*
X204417917Y-74086045D02*
X204075059Y-74886045D01*
X213809821Y-53796045D02*
X214076488Y-54596045D01*
X214076488Y-54596045D02*
X214343154Y-53796045D01*
X214571725Y-54557950D02*
X214686011Y-54596045D01*
X214686011Y-54596045D02*
X214876487Y-54596045D01*
X214876487Y-54596045D02*
X214952678Y-54557950D01*
X214952678Y-54557950D02*
X214990773Y-54519854D01*
X214990773Y-54519854D02*
X215028868Y-54443664D01*
X215028868Y-54443664D02*
X215028868Y-54367473D01*
X215028868Y-54367473D02*
X214990773Y-54291283D01*
X214990773Y-54291283D02*
X214952678Y-54253188D01*
X214952678Y-54253188D02*
X214876487Y-54215092D01*
X214876487Y-54215092D02*
X214724106Y-54176997D01*
X214724106Y-54176997D02*
X214647916Y-54138902D01*
X214647916Y-54138902D02*
X214609821Y-54100807D01*
X214609821Y-54100807D02*
X214571725Y-54024616D01*
X214571725Y-54024616D02*
X214571725Y-53948426D01*
X214571725Y-53948426D02*
X214609821Y-53872235D01*
X214609821Y-53872235D02*
X214647916Y-53834140D01*
X214647916Y-53834140D02*
X214724106Y-53796045D01*
X214724106Y-53796045D02*
X214914583Y-53796045D01*
X214914583Y-53796045D02*
X215028868Y-53834140D01*
X215524107Y-54215092D02*
X215524107Y-54596045D01*
X215257440Y-53796045D02*
X215524107Y-54215092D01*
X215524107Y-54215092D02*
X215790773Y-53796045D01*
X216019344Y-54557950D02*
X216133630Y-54596045D01*
X216133630Y-54596045D02*
X216324106Y-54596045D01*
X216324106Y-54596045D02*
X216400297Y-54557950D01*
X216400297Y-54557950D02*
X216438392Y-54519854D01*
X216438392Y-54519854D02*
X216476487Y-54443664D01*
X216476487Y-54443664D02*
X216476487Y-54367473D01*
X216476487Y-54367473D02*
X216438392Y-54291283D01*
X216438392Y-54291283D02*
X216400297Y-54253188D01*
X216400297Y-54253188D02*
X216324106Y-54215092D01*
X216324106Y-54215092D02*
X216171725Y-54176997D01*
X216171725Y-54176997D02*
X216095535Y-54138902D01*
X216095535Y-54138902D02*
X216057440Y-54100807D01*
X216057440Y-54100807D02*
X216019344Y-54024616D01*
X216019344Y-54024616D02*
X216019344Y-53948426D01*
X216019344Y-53948426D02*
X216057440Y-53872235D01*
X216057440Y-53872235D02*
X216095535Y-53834140D01*
X216095535Y-53834140D02*
X216171725Y-53796045D01*
X216171725Y-53796045D02*
X216362202Y-53796045D01*
X216362202Y-53796045D02*
X216476487Y-53834140D01*
X202748868Y-97014140D02*
X202672678Y-96976045D01*
X202672678Y-96976045D02*
X202558392Y-96976045D01*
X202558392Y-96976045D02*
X202444106Y-97014140D01*
X202444106Y-97014140D02*
X202367916Y-97090330D01*
X202367916Y-97090330D02*
X202329821Y-97166521D01*
X202329821Y-97166521D02*
X202291725Y-97318902D01*
X202291725Y-97318902D02*
X202291725Y-97433188D01*
X202291725Y-97433188D02*
X202329821Y-97585569D01*
X202329821Y-97585569D02*
X202367916Y-97661759D01*
X202367916Y-97661759D02*
X202444106Y-97737950D01*
X202444106Y-97737950D02*
X202558392Y-97776045D01*
X202558392Y-97776045D02*
X202634583Y-97776045D01*
X202634583Y-97776045D02*
X202748868Y-97737950D01*
X202748868Y-97737950D02*
X202786964Y-97699854D01*
X202786964Y-97699854D02*
X202786964Y-97433188D01*
X202786964Y-97433188D02*
X202634583Y-97433188D01*
X203129821Y-97776045D02*
X203129821Y-96976045D01*
X203129821Y-96976045D02*
X203434583Y-96976045D01*
X203434583Y-96976045D02*
X203510773Y-97014140D01*
X203510773Y-97014140D02*
X203548868Y-97052235D01*
X203548868Y-97052235D02*
X203586964Y-97128426D01*
X203586964Y-97128426D02*
X203586964Y-97242711D01*
X203586964Y-97242711D02*
X203548868Y-97318902D01*
X203548868Y-97318902D02*
X203510773Y-97356997D01*
X203510773Y-97356997D02*
X203434583Y-97395092D01*
X203434583Y-97395092D02*
X203129821Y-97395092D01*
X204348868Y-97776045D02*
X203891725Y-97776045D01*
X204120297Y-97776045D02*
X204120297Y-96976045D01*
X204120297Y-96976045D02*
X204044106Y-97090330D01*
X204044106Y-97090330D02*
X203967916Y-97166521D01*
X203967916Y-97166521D02*
X203891725Y-97204616D01*
X205034583Y-97242711D02*
X205034583Y-97776045D01*
X204844107Y-96937950D02*
X204653630Y-97509378D01*
X204653630Y-97509378D02*
X205148869Y-97509378D01*
X213978868Y-66534140D02*
X213902678Y-66496045D01*
X213902678Y-66496045D02*
X213788392Y-66496045D01*
X213788392Y-66496045D02*
X213674106Y-66534140D01*
X213674106Y-66534140D02*
X213597916Y-66610330D01*
X213597916Y-66610330D02*
X213559821Y-66686521D01*
X213559821Y-66686521D02*
X213521725Y-66838902D01*
X213521725Y-66838902D02*
X213521725Y-66953188D01*
X213521725Y-66953188D02*
X213559821Y-67105569D01*
X213559821Y-67105569D02*
X213597916Y-67181759D01*
X213597916Y-67181759D02*
X213674106Y-67257950D01*
X213674106Y-67257950D02*
X213788392Y-67296045D01*
X213788392Y-67296045D02*
X213864583Y-67296045D01*
X213864583Y-67296045D02*
X213978868Y-67257950D01*
X213978868Y-67257950D02*
X214016964Y-67219854D01*
X214016964Y-67219854D02*
X214016964Y-66953188D01*
X214016964Y-66953188D02*
X213864583Y-66953188D01*
X214359821Y-67296045D02*
X214359821Y-66496045D01*
X214359821Y-66496045D02*
X214664583Y-66496045D01*
X214664583Y-66496045D02*
X214740773Y-66534140D01*
X214740773Y-66534140D02*
X214778868Y-66572235D01*
X214778868Y-66572235D02*
X214816964Y-66648426D01*
X214816964Y-66648426D02*
X214816964Y-66762711D01*
X214816964Y-66762711D02*
X214778868Y-66838902D01*
X214778868Y-66838902D02*
X214740773Y-66876997D01*
X214740773Y-66876997D02*
X214664583Y-66915092D01*
X214664583Y-66915092D02*
X214359821Y-66915092D01*
X215121725Y-66572235D02*
X215159821Y-66534140D01*
X215159821Y-66534140D02*
X215236011Y-66496045D01*
X215236011Y-66496045D02*
X215426487Y-66496045D01*
X215426487Y-66496045D02*
X215502678Y-66534140D01*
X215502678Y-66534140D02*
X215540773Y-66572235D01*
X215540773Y-66572235D02*
X215578868Y-66648426D01*
X215578868Y-66648426D02*
X215578868Y-66724616D01*
X215578868Y-66724616D02*
X215540773Y-66838902D01*
X215540773Y-66838902D02*
X215083630Y-67296045D01*
X215083630Y-67296045D02*
X215578868Y-67296045D01*
X216036011Y-66838902D02*
X215959821Y-66800807D01*
X215959821Y-66800807D02*
X215921726Y-66762711D01*
X215921726Y-66762711D02*
X215883630Y-66686521D01*
X215883630Y-66686521D02*
X215883630Y-66648426D01*
X215883630Y-66648426D02*
X215921726Y-66572235D01*
X215921726Y-66572235D02*
X215959821Y-66534140D01*
X215959821Y-66534140D02*
X216036011Y-66496045D01*
X216036011Y-66496045D02*
X216188392Y-66496045D01*
X216188392Y-66496045D02*
X216264583Y-66534140D01*
X216264583Y-66534140D02*
X216302678Y-66572235D01*
X216302678Y-66572235D02*
X216340773Y-66648426D01*
X216340773Y-66648426D02*
X216340773Y-66686521D01*
X216340773Y-66686521D02*
X216302678Y-66762711D01*
X216302678Y-66762711D02*
X216264583Y-66800807D01*
X216264583Y-66800807D02*
X216188392Y-66838902D01*
X216188392Y-66838902D02*
X216036011Y-66838902D01*
X216036011Y-66838902D02*
X215959821Y-66876997D01*
X215959821Y-66876997D02*
X215921726Y-66915092D01*
X215921726Y-66915092D02*
X215883630Y-66991283D01*
X215883630Y-66991283D02*
X215883630Y-67143664D01*
X215883630Y-67143664D02*
X215921726Y-67219854D01*
X215921726Y-67219854D02*
X215959821Y-67257950D01*
X215959821Y-67257950D02*
X216036011Y-67296045D01*
X216036011Y-67296045D02*
X216188392Y-67296045D01*
X216188392Y-67296045D02*
X216264583Y-67257950D01*
X216264583Y-67257950D02*
X216302678Y-67219854D01*
X216302678Y-67219854D02*
X216340773Y-67143664D01*
X216340773Y-67143664D02*
X216340773Y-66991283D01*
X216340773Y-66991283D02*
X216302678Y-66915092D01*
X216302678Y-66915092D02*
X216264583Y-66876997D01*
X216264583Y-66876997D02*
X216188392Y-66838902D01*
X202779821Y-61454140D02*
X202703631Y-61416045D01*
X202703631Y-61416045D02*
X202589345Y-61416045D01*
X202589345Y-61416045D02*
X202475059Y-61454140D01*
X202475059Y-61454140D02*
X202398869Y-61530330D01*
X202398869Y-61530330D02*
X202360774Y-61606521D01*
X202360774Y-61606521D02*
X202322678Y-61758902D01*
X202322678Y-61758902D02*
X202322678Y-61873188D01*
X202322678Y-61873188D02*
X202360774Y-62025569D01*
X202360774Y-62025569D02*
X202398869Y-62101759D01*
X202398869Y-62101759D02*
X202475059Y-62177950D01*
X202475059Y-62177950D02*
X202589345Y-62216045D01*
X202589345Y-62216045D02*
X202665536Y-62216045D01*
X202665536Y-62216045D02*
X202779821Y-62177950D01*
X202779821Y-62177950D02*
X202817917Y-62139854D01*
X202817917Y-62139854D02*
X202817917Y-61873188D01*
X202817917Y-61873188D02*
X202665536Y-61873188D01*
X203160774Y-62216045D02*
X203160774Y-61416045D01*
X203160774Y-61416045D02*
X203465536Y-61416045D01*
X203465536Y-61416045D02*
X203541726Y-61454140D01*
X203541726Y-61454140D02*
X203579821Y-61492235D01*
X203579821Y-61492235D02*
X203617917Y-61568426D01*
X203617917Y-61568426D02*
X203617917Y-61682711D01*
X203617917Y-61682711D02*
X203579821Y-61758902D01*
X203579821Y-61758902D02*
X203541726Y-61796997D01*
X203541726Y-61796997D02*
X203465536Y-61835092D01*
X203465536Y-61835092D02*
X203160774Y-61835092D01*
X203884583Y-61416045D02*
X204379821Y-61416045D01*
X204379821Y-61416045D02*
X204113155Y-61720807D01*
X204113155Y-61720807D02*
X204227440Y-61720807D01*
X204227440Y-61720807D02*
X204303631Y-61758902D01*
X204303631Y-61758902D02*
X204341726Y-61796997D01*
X204341726Y-61796997D02*
X204379821Y-61873188D01*
X204379821Y-61873188D02*
X204379821Y-62063664D01*
X204379821Y-62063664D02*
X204341726Y-62139854D01*
X204341726Y-62139854D02*
X204303631Y-62177950D01*
X204303631Y-62177950D02*
X204227440Y-62216045D01*
X204227440Y-62216045D02*
X203998869Y-62216045D01*
X203998869Y-62216045D02*
X203922678Y-62177950D01*
X203922678Y-62177950D02*
X203884583Y-62139854D01*
X210938392Y-64527473D02*
X211319345Y-64527473D01*
X210862202Y-64756045D02*
X211128869Y-63956045D01*
X211128869Y-63956045D02*
X211395535Y-64756045D01*
X211662202Y-64756045D02*
X211662202Y-63956045D01*
X211662202Y-63956045D02*
X211852678Y-63956045D01*
X211852678Y-63956045D02*
X211966964Y-63994140D01*
X211966964Y-63994140D02*
X212043154Y-64070330D01*
X212043154Y-64070330D02*
X212081249Y-64146521D01*
X212081249Y-64146521D02*
X212119345Y-64298902D01*
X212119345Y-64298902D02*
X212119345Y-64413188D01*
X212119345Y-64413188D02*
X212081249Y-64565569D01*
X212081249Y-64565569D02*
X212043154Y-64641759D01*
X212043154Y-64641759D02*
X211966964Y-64717950D01*
X211966964Y-64717950D02*
X211852678Y-64756045D01*
X211852678Y-64756045D02*
X211662202Y-64756045D01*
X212919345Y-64679854D02*
X212881249Y-64717950D01*
X212881249Y-64717950D02*
X212766964Y-64756045D01*
X212766964Y-64756045D02*
X212690773Y-64756045D01*
X212690773Y-64756045D02*
X212576487Y-64717950D01*
X212576487Y-64717950D02*
X212500297Y-64641759D01*
X212500297Y-64641759D02*
X212462202Y-64565569D01*
X212462202Y-64565569D02*
X212424106Y-64413188D01*
X212424106Y-64413188D02*
X212424106Y-64298902D01*
X212424106Y-64298902D02*
X212462202Y-64146521D01*
X212462202Y-64146521D02*
X212500297Y-64070330D01*
X212500297Y-64070330D02*
X212576487Y-63994140D01*
X212576487Y-63994140D02*
X212690773Y-63956045D01*
X212690773Y-63956045D02*
X212766964Y-63956045D01*
X212766964Y-63956045D02*
X212881249Y-63994140D01*
X212881249Y-63994140D02*
X212919345Y-64032235D01*
X213071726Y-64832235D02*
X213681249Y-64832235D01*
X213757440Y-63956045D02*
X214024107Y-64756045D01*
X214024107Y-64756045D02*
X214290773Y-63956045D01*
X215014583Y-64756045D02*
X214747916Y-64375092D01*
X214557440Y-64756045D02*
X214557440Y-63956045D01*
X214557440Y-63956045D02*
X214862202Y-63956045D01*
X214862202Y-63956045D02*
X214938392Y-63994140D01*
X214938392Y-63994140D02*
X214976487Y-64032235D01*
X214976487Y-64032235D02*
X215014583Y-64108426D01*
X215014583Y-64108426D02*
X215014583Y-64222711D01*
X215014583Y-64222711D02*
X214976487Y-64298902D01*
X214976487Y-64298902D02*
X214938392Y-64336997D01*
X214938392Y-64336997D02*
X214862202Y-64375092D01*
X214862202Y-64375092D02*
X214557440Y-64375092D01*
X215357440Y-64336997D02*
X215624106Y-64336997D01*
X215738392Y-64756045D02*
X215357440Y-64756045D01*
X215357440Y-64756045D02*
X215357440Y-63956045D01*
X215357440Y-63956045D02*
X215738392Y-63956045D01*
X216347916Y-64336997D02*
X216081250Y-64336997D01*
X216081250Y-64756045D02*
X216081250Y-63956045D01*
X216081250Y-63956045D02*
X216462202Y-63956045D01*
X202748868Y-89394140D02*
X202672678Y-89356045D01*
X202672678Y-89356045D02*
X202558392Y-89356045D01*
X202558392Y-89356045D02*
X202444106Y-89394140D01*
X202444106Y-89394140D02*
X202367916Y-89470330D01*
X202367916Y-89470330D02*
X202329821Y-89546521D01*
X202329821Y-89546521D02*
X202291725Y-89698902D01*
X202291725Y-89698902D02*
X202291725Y-89813188D01*
X202291725Y-89813188D02*
X202329821Y-89965569D01*
X202329821Y-89965569D02*
X202367916Y-90041759D01*
X202367916Y-90041759D02*
X202444106Y-90117950D01*
X202444106Y-90117950D02*
X202558392Y-90156045D01*
X202558392Y-90156045D02*
X202634583Y-90156045D01*
X202634583Y-90156045D02*
X202748868Y-90117950D01*
X202748868Y-90117950D02*
X202786964Y-90079854D01*
X202786964Y-90079854D02*
X202786964Y-89813188D01*
X202786964Y-89813188D02*
X202634583Y-89813188D01*
X203129821Y-90156045D02*
X203129821Y-89356045D01*
X203129821Y-89356045D02*
X203434583Y-89356045D01*
X203434583Y-89356045D02*
X203510773Y-89394140D01*
X203510773Y-89394140D02*
X203548868Y-89432235D01*
X203548868Y-89432235D02*
X203586964Y-89508426D01*
X203586964Y-89508426D02*
X203586964Y-89622711D01*
X203586964Y-89622711D02*
X203548868Y-89698902D01*
X203548868Y-89698902D02*
X203510773Y-89736997D01*
X203510773Y-89736997D02*
X203434583Y-89775092D01*
X203434583Y-89775092D02*
X203129821Y-89775092D01*
X204348868Y-90156045D02*
X203891725Y-90156045D01*
X204120297Y-90156045D02*
X204120297Y-89356045D01*
X204120297Y-89356045D02*
X204044106Y-89470330D01*
X204044106Y-89470330D02*
X203967916Y-89546521D01*
X203967916Y-89546521D02*
X203891725Y-89584616D01*
X204653630Y-89432235D02*
X204691726Y-89394140D01*
X204691726Y-89394140D02*
X204767916Y-89356045D01*
X204767916Y-89356045D02*
X204958392Y-89356045D01*
X204958392Y-89356045D02*
X205034583Y-89394140D01*
X205034583Y-89394140D02*
X205072678Y-89432235D01*
X205072678Y-89432235D02*
X205110773Y-89508426D01*
X205110773Y-89508426D02*
X205110773Y-89584616D01*
X205110773Y-89584616D02*
X205072678Y-89698902D01*
X205072678Y-89698902D02*
X204615535Y-90156045D01*
X204615535Y-90156045D02*
X205110773Y-90156045D01*
X213978868Y-99554140D02*
X213902678Y-99516045D01*
X213902678Y-99516045D02*
X213788392Y-99516045D01*
X213788392Y-99516045D02*
X213674106Y-99554140D01*
X213674106Y-99554140D02*
X213597916Y-99630330D01*
X213597916Y-99630330D02*
X213559821Y-99706521D01*
X213559821Y-99706521D02*
X213521725Y-99858902D01*
X213521725Y-99858902D02*
X213521725Y-99973188D01*
X213521725Y-99973188D02*
X213559821Y-100125569D01*
X213559821Y-100125569D02*
X213597916Y-100201759D01*
X213597916Y-100201759D02*
X213674106Y-100277950D01*
X213674106Y-100277950D02*
X213788392Y-100316045D01*
X213788392Y-100316045D02*
X213864583Y-100316045D01*
X213864583Y-100316045D02*
X213978868Y-100277950D01*
X213978868Y-100277950D02*
X214016964Y-100239854D01*
X214016964Y-100239854D02*
X214016964Y-99973188D01*
X214016964Y-99973188D02*
X213864583Y-99973188D01*
X214359821Y-100316045D02*
X214359821Y-99516045D01*
X214359821Y-99516045D02*
X214664583Y-99516045D01*
X214664583Y-99516045D02*
X214740773Y-99554140D01*
X214740773Y-99554140D02*
X214778868Y-99592235D01*
X214778868Y-99592235D02*
X214816964Y-99668426D01*
X214816964Y-99668426D02*
X214816964Y-99782711D01*
X214816964Y-99782711D02*
X214778868Y-99858902D01*
X214778868Y-99858902D02*
X214740773Y-99896997D01*
X214740773Y-99896997D02*
X214664583Y-99935092D01*
X214664583Y-99935092D02*
X214359821Y-99935092D01*
X215578868Y-100316045D02*
X215121725Y-100316045D01*
X215350297Y-100316045D02*
X215350297Y-99516045D01*
X215350297Y-99516045D02*
X215274106Y-99630330D01*
X215274106Y-99630330D02*
X215197916Y-99706521D01*
X215197916Y-99706521D02*
X215121725Y-99744616D01*
X216264583Y-99516045D02*
X216112202Y-99516045D01*
X216112202Y-99516045D02*
X216036011Y-99554140D01*
X216036011Y-99554140D02*
X215997916Y-99592235D01*
X215997916Y-99592235D02*
X215921726Y-99706521D01*
X215921726Y-99706521D02*
X215883630Y-99858902D01*
X215883630Y-99858902D02*
X215883630Y-100163664D01*
X215883630Y-100163664D02*
X215921726Y-100239854D01*
X215921726Y-100239854D02*
X215959821Y-100277950D01*
X215959821Y-100277950D02*
X216036011Y-100316045D01*
X216036011Y-100316045D02*
X216188392Y-100316045D01*
X216188392Y-100316045D02*
X216264583Y-100277950D01*
X216264583Y-100277950D02*
X216302678Y-100239854D01*
X216302678Y-100239854D02*
X216340773Y-100163664D01*
X216340773Y-100163664D02*
X216340773Y-99973188D01*
X216340773Y-99973188D02*
X216302678Y-99896997D01*
X216302678Y-99896997D02*
X216264583Y-99858902D01*
X216264583Y-99858902D02*
X216188392Y-99820807D01*
X216188392Y-99820807D02*
X216036011Y-99820807D01*
X216036011Y-99820807D02*
X215959821Y-99858902D01*
X215959821Y-99858902D02*
X215921726Y-99896997D01*
X215921726Y-99896997D02*
X215883630Y-99973188D01*
X213978868Y-79234140D02*
X213902678Y-79196045D01*
X213902678Y-79196045D02*
X213788392Y-79196045D01*
X213788392Y-79196045D02*
X213674106Y-79234140D01*
X213674106Y-79234140D02*
X213597916Y-79310330D01*
X213597916Y-79310330D02*
X213559821Y-79386521D01*
X213559821Y-79386521D02*
X213521725Y-79538902D01*
X213521725Y-79538902D02*
X213521725Y-79653188D01*
X213521725Y-79653188D02*
X213559821Y-79805569D01*
X213559821Y-79805569D02*
X213597916Y-79881759D01*
X213597916Y-79881759D02*
X213674106Y-79957950D01*
X213674106Y-79957950D02*
X213788392Y-79996045D01*
X213788392Y-79996045D02*
X213864583Y-79996045D01*
X213864583Y-79996045D02*
X213978868Y-79957950D01*
X213978868Y-79957950D02*
X214016964Y-79919854D01*
X214016964Y-79919854D02*
X214016964Y-79653188D01*
X214016964Y-79653188D02*
X213864583Y-79653188D01*
X214359821Y-79996045D02*
X214359821Y-79196045D01*
X214359821Y-79196045D02*
X214664583Y-79196045D01*
X214664583Y-79196045D02*
X214740773Y-79234140D01*
X214740773Y-79234140D02*
X214778868Y-79272235D01*
X214778868Y-79272235D02*
X214816964Y-79348426D01*
X214816964Y-79348426D02*
X214816964Y-79462711D01*
X214816964Y-79462711D02*
X214778868Y-79538902D01*
X214778868Y-79538902D02*
X214740773Y-79576997D01*
X214740773Y-79576997D02*
X214664583Y-79615092D01*
X214664583Y-79615092D02*
X214359821Y-79615092D01*
X215121725Y-79272235D02*
X215159821Y-79234140D01*
X215159821Y-79234140D02*
X215236011Y-79196045D01*
X215236011Y-79196045D02*
X215426487Y-79196045D01*
X215426487Y-79196045D02*
X215502678Y-79234140D01*
X215502678Y-79234140D02*
X215540773Y-79272235D01*
X215540773Y-79272235D02*
X215578868Y-79348426D01*
X215578868Y-79348426D02*
X215578868Y-79424616D01*
X215578868Y-79424616D02*
X215540773Y-79538902D01*
X215540773Y-79538902D02*
X215083630Y-79996045D01*
X215083630Y-79996045D02*
X215578868Y-79996045D01*
X215883630Y-79272235D02*
X215921726Y-79234140D01*
X215921726Y-79234140D02*
X215997916Y-79196045D01*
X215997916Y-79196045D02*
X216188392Y-79196045D01*
X216188392Y-79196045D02*
X216264583Y-79234140D01*
X216264583Y-79234140D02*
X216302678Y-79272235D01*
X216302678Y-79272235D02*
X216340773Y-79348426D01*
X216340773Y-79348426D02*
X216340773Y-79424616D01*
X216340773Y-79424616D02*
X216302678Y-79538902D01*
X216302678Y-79538902D02*
X215845535Y-79996045D01*
X215845535Y-79996045D02*
X216340773Y-79996045D01*
X202741726Y-94474140D02*
X202665536Y-94436045D01*
X202665536Y-94436045D02*
X202551250Y-94436045D01*
X202551250Y-94436045D02*
X202436964Y-94474140D01*
X202436964Y-94474140D02*
X202360774Y-94550330D01*
X202360774Y-94550330D02*
X202322679Y-94626521D01*
X202322679Y-94626521D02*
X202284583Y-94778902D01*
X202284583Y-94778902D02*
X202284583Y-94893188D01*
X202284583Y-94893188D02*
X202322679Y-95045569D01*
X202322679Y-95045569D02*
X202360774Y-95121759D01*
X202360774Y-95121759D02*
X202436964Y-95197950D01*
X202436964Y-95197950D02*
X202551250Y-95236045D01*
X202551250Y-95236045D02*
X202627441Y-95236045D01*
X202627441Y-95236045D02*
X202741726Y-95197950D01*
X202741726Y-95197950D02*
X202779822Y-95159854D01*
X202779822Y-95159854D02*
X202779822Y-94893188D01*
X202779822Y-94893188D02*
X202627441Y-94893188D01*
X203122679Y-95236045D02*
X203122679Y-94436045D01*
X203122679Y-94436045D02*
X203579822Y-95236045D01*
X203579822Y-95236045D02*
X203579822Y-94436045D01*
X203960774Y-95236045D02*
X203960774Y-94436045D01*
X203960774Y-94436045D02*
X204151250Y-94436045D01*
X204151250Y-94436045D02*
X204265536Y-94474140D01*
X204265536Y-94474140D02*
X204341726Y-94550330D01*
X204341726Y-94550330D02*
X204379821Y-94626521D01*
X204379821Y-94626521D02*
X204417917Y-94778902D01*
X204417917Y-94778902D02*
X204417917Y-94893188D01*
X204417917Y-94893188D02*
X204379821Y-95045569D01*
X204379821Y-95045569D02*
X204341726Y-95121759D01*
X204341726Y-95121759D02*
X204265536Y-95197950D01*
X204265536Y-95197950D02*
X204151250Y-95236045D01*
X204151250Y-95236045D02*
X203960774Y-95236045D01*
X202779821Y-51294140D02*
X202703631Y-51256045D01*
X202703631Y-51256045D02*
X202589345Y-51256045D01*
X202589345Y-51256045D02*
X202475059Y-51294140D01*
X202475059Y-51294140D02*
X202398869Y-51370330D01*
X202398869Y-51370330D02*
X202360774Y-51446521D01*
X202360774Y-51446521D02*
X202322678Y-51598902D01*
X202322678Y-51598902D02*
X202322678Y-51713188D01*
X202322678Y-51713188D02*
X202360774Y-51865569D01*
X202360774Y-51865569D02*
X202398869Y-51941759D01*
X202398869Y-51941759D02*
X202475059Y-52017950D01*
X202475059Y-52017950D02*
X202589345Y-52056045D01*
X202589345Y-52056045D02*
X202665536Y-52056045D01*
X202665536Y-52056045D02*
X202779821Y-52017950D01*
X202779821Y-52017950D02*
X202817917Y-51979854D01*
X202817917Y-51979854D02*
X202817917Y-51713188D01*
X202817917Y-51713188D02*
X202665536Y-51713188D01*
X203160774Y-52056045D02*
X203160774Y-51256045D01*
X203160774Y-51256045D02*
X203465536Y-51256045D01*
X203465536Y-51256045D02*
X203541726Y-51294140D01*
X203541726Y-51294140D02*
X203579821Y-51332235D01*
X203579821Y-51332235D02*
X203617917Y-51408426D01*
X203617917Y-51408426D02*
X203617917Y-51522711D01*
X203617917Y-51522711D02*
X203579821Y-51598902D01*
X203579821Y-51598902D02*
X203541726Y-51636997D01*
X203541726Y-51636997D02*
X203465536Y-51675092D01*
X203465536Y-51675092D02*
X203160774Y-51675092D01*
X204113155Y-51256045D02*
X204189345Y-51256045D01*
X204189345Y-51256045D02*
X204265536Y-51294140D01*
X204265536Y-51294140D02*
X204303631Y-51332235D01*
X204303631Y-51332235D02*
X204341726Y-51408426D01*
X204341726Y-51408426D02*
X204379821Y-51560807D01*
X204379821Y-51560807D02*
X204379821Y-51751283D01*
X204379821Y-51751283D02*
X204341726Y-51903664D01*
X204341726Y-51903664D02*
X204303631Y-51979854D01*
X204303631Y-51979854D02*
X204265536Y-52017950D01*
X204265536Y-52017950D02*
X204189345Y-52056045D01*
X204189345Y-52056045D02*
X204113155Y-52056045D01*
X204113155Y-52056045D02*
X204036964Y-52017950D01*
X204036964Y-52017950D02*
X203998869Y-51979854D01*
X203998869Y-51979854D02*
X203960774Y-51903664D01*
X203960774Y-51903664D02*
X203922678Y-51751283D01*
X203922678Y-51751283D02*
X203922678Y-51560807D01*
X203922678Y-51560807D02*
X203960774Y-51408426D01*
X203960774Y-51408426D02*
X203998869Y-51332235D01*
X203998869Y-51332235D02*
X204036964Y-51294140D01*
X204036964Y-51294140D02*
X204113155Y-51256045D01*
X202748868Y-91934140D02*
X202672678Y-91896045D01*
X202672678Y-91896045D02*
X202558392Y-91896045D01*
X202558392Y-91896045D02*
X202444106Y-91934140D01*
X202444106Y-91934140D02*
X202367916Y-92010330D01*
X202367916Y-92010330D02*
X202329821Y-92086521D01*
X202329821Y-92086521D02*
X202291725Y-92238902D01*
X202291725Y-92238902D02*
X202291725Y-92353188D01*
X202291725Y-92353188D02*
X202329821Y-92505569D01*
X202329821Y-92505569D02*
X202367916Y-92581759D01*
X202367916Y-92581759D02*
X202444106Y-92657950D01*
X202444106Y-92657950D02*
X202558392Y-92696045D01*
X202558392Y-92696045D02*
X202634583Y-92696045D01*
X202634583Y-92696045D02*
X202748868Y-92657950D01*
X202748868Y-92657950D02*
X202786964Y-92619854D01*
X202786964Y-92619854D02*
X202786964Y-92353188D01*
X202786964Y-92353188D02*
X202634583Y-92353188D01*
X203129821Y-92696045D02*
X203129821Y-91896045D01*
X203129821Y-91896045D02*
X203434583Y-91896045D01*
X203434583Y-91896045D02*
X203510773Y-91934140D01*
X203510773Y-91934140D02*
X203548868Y-91972235D01*
X203548868Y-91972235D02*
X203586964Y-92048426D01*
X203586964Y-92048426D02*
X203586964Y-92162711D01*
X203586964Y-92162711D02*
X203548868Y-92238902D01*
X203548868Y-92238902D02*
X203510773Y-92276997D01*
X203510773Y-92276997D02*
X203434583Y-92315092D01*
X203434583Y-92315092D02*
X203129821Y-92315092D01*
X204348868Y-92696045D02*
X203891725Y-92696045D01*
X204120297Y-92696045D02*
X204120297Y-91896045D01*
X204120297Y-91896045D02*
X204044106Y-92010330D01*
X204044106Y-92010330D02*
X203967916Y-92086521D01*
X203967916Y-92086521D02*
X203891725Y-92124616D01*
X204615535Y-91896045D02*
X205110773Y-91896045D01*
X205110773Y-91896045D02*
X204844107Y-92200807D01*
X204844107Y-92200807D02*
X204958392Y-92200807D01*
X204958392Y-92200807D02*
X205034583Y-92238902D01*
X205034583Y-92238902D02*
X205072678Y-92276997D01*
X205072678Y-92276997D02*
X205110773Y-92353188D01*
X205110773Y-92353188D02*
X205110773Y-92543664D01*
X205110773Y-92543664D02*
X205072678Y-92619854D01*
X205072678Y-92619854D02*
X205034583Y-92657950D01*
X205034583Y-92657950D02*
X204958392Y-92696045D01*
X204958392Y-92696045D02*
X204729821Y-92696045D01*
X204729821Y-92696045D02*
X204653630Y-92657950D01*
X204653630Y-92657950D02*
X204615535Y-92619854D01*
X214821726Y-56374140D02*
X214745536Y-56336045D01*
X214745536Y-56336045D02*
X214631250Y-56336045D01*
X214631250Y-56336045D02*
X214516964Y-56374140D01*
X214516964Y-56374140D02*
X214440774Y-56450330D01*
X214440774Y-56450330D02*
X214402679Y-56526521D01*
X214402679Y-56526521D02*
X214364583Y-56678902D01*
X214364583Y-56678902D02*
X214364583Y-56793188D01*
X214364583Y-56793188D02*
X214402679Y-56945569D01*
X214402679Y-56945569D02*
X214440774Y-57021759D01*
X214440774Y-57021759D02*
X214516964Y-57097950D01*
X214516964Y-57097950D02*
X214631250Y-57136045D01*
X214631250Y-57136045D02*
X214707441Y-57136045D01*
X214707441Y-57136045D02*
X214821726Y-57097950D01*
X214821726Y-57097950D02*
X214859822Y-57059854D01*
X214859822Y-57059854D02*
X214859822Y-56793188D01*
X214859822Y-56793188D02*
X214707441Y-56793188D01*
X215202679Y-57136045D02*
X215202679Y-56336045D01*
X215202679Y-56336045D02*
X215659822Y-57136045D01*
X215659822Y-57136045D02*
X215659822Y-56336045D01*
X216040774Y-57136045D02*
X216040774Y-56336045D01*
X216040774Y-56336045D02*
X216231250Y-56336045D01*
X216231250Y-56336045D02*
X216345536Y-56374140D01*
X216345536Y-56374140D02*
X216421726Y-56450330D01*
X216421726Y-56450330D02*
X216459821Y-56526521D01*
X216459821Y-56526521D02*
X216497917Y-56678902D01*
X216497917Y-56678902D02*
X216497917Y-56793188D01*
X216497917Y-56793188D02*
X216459821Y-56945569D01*
X216459821Y-56945569D02*
X216421726Y-57021759D01*
X216421726Y-57021759D02*
X216345536Y-57097950D01*
X216345536Y-57097950D02*
X216231250Y-57136045D01*
X216231250Y-57136045D02*
X216040774Y-57136045D01*
X214671726Y-81774140D02*
X214595536Y-81736045D01*
X214595536Y-81736045D02*
X214481250Y-81736045D01*
X214481250Y-81736045D02*
X214366964Y-81774140D01*
X214366964Y-81774140D02*
X214290774Y-81850330D01*
X214290774Y-81850330D02*
X214252679Y-81926521D01*
X214252679Y-81926521D02*
X214214583Y-82078902D01*
X214214583Y-82078902D02*
X214214583Y-82193188D01*
X214214583Y-82193188D02*
X214252679Y-82345569D01*
X214252679Y-82345569D02*
X214290774Y-82421759D01*
X214290774Y-82421759D02*
X214366964Y-82497950D01*
X214366964Y-82497950D02*
X214481250Y-82536045D01*
X214481250Y-82536045D02*
X214557441Y-82536045D01*
X214557441Y-82536045D02*
X214671726Y-82497950D01*
X214671726Y-82497950D02*
X214709822Y-82459854D01*
X214709822Y-82459854D02*
X214709822Y-82193188D01*
X214709822Y-82193188D02*
X214557441Y-82193188D01*
X215052679Y-82536045D02*
X215052679Y-81736045D01*
X215052679Y-81736045D02*
X215509822Y-82536045D01*
X215509822Y-82536045D02*
X215509822Y-81736045D01*
X215890774Y-82536045D02*
X215890774Y-81736045D01*
X215890774Y-81736045D02*
X216081250Y-81736045D01*
X216081250Y-81736045D02*
X216195536Y-81774140D01*
X216195536Y-81774140D02*
X216271726Y-81850330D01*
X216271726Y-81850330D02*
X216309821Y-81926521D01*
X216309821Y-81926521D02*
X216347917Y-82078902D01*
X216347917Y-82078902D02*
X216347917Y-82193188D01*
X216347917Y-82193188D02*
X216309821Y-82345569D01*
X216309821Y-82345569D02*
X216271726Y-82421759D01*
X216271726Y-82421759D02*
X216195536Y-82497950D01*
X216195536Y-82497950D02*
X216081250Y-82536045D01*
X216081250Y-82536045D02*
X215890774Y-82536045D01*
X213978868Y-91934140D02*
X213902678Y-91896045D01*
X213902678Y-91896045D02*
X213788392Y-91896045D01*
X213788392Y-91896045D02*
X213674106Y-91934140D01*
X213674106Y-91934140D02*
X213597916Y-92010330D01*
X213597916Y-92010330D02*
X213559821Y-92086521D01*
X213559821Y-92086521D02*
X213521725Y-92238902D01*
X213521725Y-92238902D02*
X213521725Y-92353188D01*
X213521725Y-92353188D02*
X213559821Y-92505569D01*
X213559821Y-92505569D02*
X213597916Y-92581759D01*
X213597916Y-92581759D02*
X213674106Y-92657950D01*
X213674106Y-92657950D02*
X213788392Y-92696045D01*
X213788392Y-92696045D02*
X213864583Y-92696045D01*
X213864583Y-92696045D02*
X213978868Y-92657950D01*
X213978868Y-92657950D02*
X214016964Y-92619854D01*
X214016964Y-92619854D02*
X214016964Y-92353188D01*
X214016964Y-92353188D02*
X213864583Y-92353188D01*
X214359821Y-92696045D02*
X214359821Y-91896045D01*
X214359821Y-91896045D02*
X214664583Y-91896045D01*
X214664583Y-91896045D02*
X214740773Y-91934140D01*
X214740773Y-91934140D02*
X214778868Y-91972235D01*
X214778868Y-91972235D02*
X214816964Y-92048426D01*
X214816964Y-92048426D02*
X214816964Y-92162711D01*
X214816964Y-92162711D02*
X214778868Y-92238902D01*
X214778868Y-92238902D02*
X214740773Y-92276997D01*
X214740773Y-92276997D02*
X214664583Y-92315092D01*
X214664583Y-92315092D02*
X214359821Y-92315092D01*
X215578868Y-92696045D02*
X215121725Y-92696045D01*
X215350297Y-92696045D02*
X215350297Y-91896045D01*
X215350297Y-91896045D02*
X215274106Y-92010330D01*
X215274106Y-92010330D02*
X215197916Y-92086521D01*
X215197916Y-92086521D02*
X215121725Y-92124616D01*
X216036011Y-92238902D02*
X215959821Y-92200807D01*
X215959821Y-92200807D02*
X215921726Y-92162711D01*
X215921726Y-92162711D02*
X215883630Y-92086521D01*
X215883630Y-92086521D02*
X215883630Y-92048426D01*
X215883630Y-92048426D02*
X215921726Y-91972235D01*
X215921726Y-91972235D02*
X215959821Y-91934140D01*
X215959821Y-91934140D02*
X216036011Y-91896045D01*
X216036011Y-91896045D02*
X216188392Y-91896045D01*
X216188392Y-91896045D02*
X216264583Y-91934140D01*
X216264583Y-91934140D02*
X216302678Y-91972235D01*
X216302678Y-91972235D02*
X216340773Y-92048426D01*
X216340773Y-92048426D02*
X216340773Y-92086521D01*
X216340773Y-92086521D02*
X216302678Y-92162711D01*
X216302678Y-92162711D02*
X216264583Y-92200807D01*
X216264583Y-92200807D02*
X216188392Y-92238902D01*
X216188392Y-92238902D02*
X216036011Y-92238902D01*
X216036011Y-92238902D02*
X215959821Y-92276997D01*
X215959821Y-92276997D02*
X215921726Y-92315092D01*
X215921726Y-92315092D02*
X215883630Y-92391283D01*
X215883630Y-92391283D02*
X215883630Y-92543664D01*
X215883630Y-92543664D02*
X215921726Y-92619854D01*
X215921726Y-92619854D02*
X215959821Y-92657950D01*
X215959821Y-92657950D02*
X216036011Y-92696045D01*
X216036011Y-92696045D02*
X216188392Y-92696045D01*
X216188392Y-92696045D02*
X216264583Y-92657950D01*
X216264583Y-92657950D02*
X216302678Y-92619854D01*
X216302678Y-92619854D02*
X216340773Y-92543664D01*
X216340773Y-92543664D02*
X216340773Y-92391283D01*
X216340773Y-92391283D02*
X216302678Y-92315092D01*
X216302678Y-92315092D02*
X216264583Y-92276997D01*
X216264583Y-92276997D02*
X216188392Y-92238902D01*
X214690774Y-77456045D02*
X214424107Y-77075092D01*
X214233631Y-77456045D02*
X214233631Y-76656045D01*
X214233631Y-76656045D02*
X214538393Y-76656045D01*
X214538393Y-76656045D02*
X214614583Y-76694140D01*
X214614583Y-76694140D02*
X214652678Y-76732235D01*
X214652678Y-76732235D02*
X214690774Y-76808426D01*
X214690774Y-76808426D02*
X214690774Y-76922711D01*
X214690774Y-76922711D02*
X214652678Y-76998902D01*
X214652678Y-76998902D02*
X214614583Y-77036997D01*
X214614583Y-77036997D02*
X214538393Y-77075092D01*
X214538393Y-77075092D02*
X214233631Y-77075092D01*
X215033631Y-76656045D02*
X215033631Y-77303664D01*
X215033631Y-77303664D02*
X215071726Y-77379854D01*
X215071726Y-77379854D02*
X215109821Y-77417950D01*
X215109821Y-77417950D02*
X215186012Y-77456045D01*
X215186012Y-77456045D02*
X215338393Y-77456045D01*
X215338393Y-77456045D02*
X215414583Y-77417950D01*
X215414583Y-77417950D02*
X215452678Y-77379854D01*
X215452678Y-77379854D02*
X215490774Y-77303664D01*
X215490774Y-77303664D02*
X215490774Y-76656045D01*
X215871726Y-77456045D02*
X215871726Y-76656045D01*
X215871726Y-76656045D02*
X216328869Y-77456045D01*
X216328869Y-77456045D02*
X216328869Y-76656045D01*
X208991640Y-97433273D02*
X208953545Y-97509463D01*
X208953545Y-97509463D02*
X208953545Y-97623749D01*
X208953545Y-97623749D02*
X208991640Y-97738035D01*
X208991640Y-97738035D02*
X209067830Y-97814225D01*
X209067830Y-97814225D02*
X209144021Y-97852320D01*
X209144021Y-97852320D02*
X209296402Y-97890416D01*
X209296402Y-97890416D02*
X209410688Y-97890416D01*
X209410688Y-97890416D02*
X209563069Y-97852320D01*
X209563069Y-97852320D02*
X209639259Y-97814225D01*
X209639259Y-97814225D02*
X209715450Y-97738035D01*
X209715450Y-97738035D02*
X209753545Y-97623749D01*
X209753545Y-97623749D02*
X209753545Y-97547558D01*
X209753545Y-97547558D02*
X209715450Y-97433273D01*
X209715450Y-97433273D02*
X209677354Y-97395177D01*
X209677354Y-97395177D02*
X209410688Y-97395177D01*
X209410688Y-97395177D02*
X209410688Y-97547558D01*
X209753545Y-97052320D02*
X208953545Y-97052320D01*
X208953545Y-97052320D02*
X209753545Y-96595177D01*
X209753545Y-96595177D02*
X208953545Y-96595177D01*
X209753545Y-96214225D02*
X208953545Y-96214225D01*
X208953545Y-96214225D02*
X208953545Y-96023749D01*
X208953545Y-96023749D02*
X208991640Y-95909463D01*
X208991640Y-95909463D02*
X209067830Y-95833273D01*
X209067830Y-95833273D02*
X209144021Y-95795178D01*
X209144021Y-95795178D02*
X209296402Y-95757082D01*
X209296402Y-95757082D02*
X209410688Y-95757082D01*
X209410688Y-95757082D02*
X209563069Y-95795178D01*
X209563069Y-95795178D02*
X209639259Y-95833273D01*
X209639259Y-95833273D02*
X209715450Y-95909463D01*
X209715450Y-95909463D02*
X209753545Y-96023749D01*
X209753545Y-96023749D02*
X209753545Y-96214225D01*
X202748868Y-84314140D02*
X202672678Y-84276045D01*
X202672678Y-84276045D02*
X202558392Y-84276045D01*
X202558392Y-84276045D02*
X202444106Y-84314140D01*
X202444106Y-84314140D02*
X202367916Y-84390330D01*
X202367916Y-84390330D02*
X202329821Y-84466521D01*
X202329821Y-84466521D02*
X202291725Y-84618902D01*
X202291725Y-84618902D02*
X202291725Y-84733188D01*
X202291725Y-84733188D02*
X202329821Y-84885569D01*
X202329821Y-84885569D02*
X202367916Y-84961759D01*
X202367916Y-84961759D02*
X202444106Y-85037950D01*
X202444106Y-85037950D02*
X202558392Y-85076045D01*
X202558392Y-85076045D02*
X202634583Y-85076045D01*
X202634583Y-85076045D02*
X202748868Y-85037950D01*
X202748868Y-85037950D02*
X202786964Y-84999854D01*
X202786964Y-84999854D02*
X202786964Y-84733188D01*
X202786964Y-84733188D02*
X202634583Y-84733188D01*
X203129821Y-85076045D02*
X203129821Y-84276045D01*
X203129821Y-84276045D02*
X203434583Y-84276045D01*
X203434583Y-84276045D02*
X203510773Y-84314140D01*
X203510773Y-84314140D02*
X203548868Y-84352235D01*
X203548868Y-84352235D02*
X203586964Y-84428426D01*
X203586964Y-84428426D02*
X203586964Y-84542711D01*
X203586964Y-84542711D02*
X203548868Y-84618902D01*
X203548868Y-84618902D02*
X203510773Y-84656997D01*
X203510773Y-84656997D02*
X203434583Y-84695092D01*
X203434583Y-84695092D02*
X203129821Y-84695092D01*
X204348868Y-85076045D02*
X203891725Y-85076045D01*
X204120297Y-85076045D02*
X204120297Y-84276045D01*
X204120297Y-84276045D02*
X204044106Y-84390330D01*
X204044106Y-84390330D02*
X203967916Y-84466521D01*
X203967916Y-84466521D02*
X203891725Y-84504616D01*
X204844107Y-84276045D02*
X204920297Y-84276045D01*
X204920297Y-84276045D02*
X204996488Y-84314140D01*
X204996488Y-84314140D02*
X205034583Y-84352235D01*
X205034583Y-84352235D02*
X205072678Y-84428426D01*
X205072678Y-84428426D02*
X205110773Y-84580807D01*
X205110773Y-84580807D02*
X205110773Y-84771283D01*
X205110773Y-84771283D02*
X205072678Y-84923664D01*
X205072678Y-84923664D02*
X205034583Y-84999854D01*
X205034583Y-84999854D02*
X204996488Y-85037950D01*
X204996488Y-85037950D02*
X204920297Y-85076045D01*
X204920297Y-85076045D02*
X204844107Y-85076045D01*
X204844107Y-85076045D02*
X204767916Y-85037950D01*
X204767916Y-85037950D02*
X204729821Y-84999854D01*
X204729821Y-84999854D02*
X204691726Y-84923664D01*
X204691726Y-84923664D02*
X204653630Y-84771283D01*
X204653630Y-84771283D02*
X204653630Y-84580807D01*
X204653630Y-84580807D02*
X204691726Y-84428426D01*
X204691726Y-84428426D02*
X204729821Y-84352235D01*
X204729821Y-84352235D02*
X204767916Y-84314140D01*
X204767916Y-84314140D02*
X204844107Y-84276045D01*
X212355059Y-58876045D02*
X212850297Y-58876045D01*
X212850297Y-58876045D02*
X212583631Y-59180807D01*
X212583631Y-59180807D02*
X212697916Y-59180807D01*
X212697916Y-59180807D02*
X212774107Y-59218902D01*
X212774107Y-59218902D02*
X212812202Y-59256997D01*
X212812202Y-59256997D02*
X212850297Y-59333188D01*
X212850297Y-59333188D02*
X212850297Y-59523664D01*
X212850297Y-59523664D02*
X212812202Y-59599854D01*
X212812202Y-59599854D02*
X212774107Y-59637950D01*
X212774107Y-59637950D02*
X212697916Y-59676045D01*
X212697916Y-59676045D02*
X212469345Y-59676045D01*
X212469345Y-59676045D02*
X212393154Y-59637950D01*
X212393154Y-59637950D02*
X212355059Y-59599854D01*
X213078869Y-58876045D02*
X213345536Y-59676045D01*
X213345536Y-59676045D02*
X213612202Y-58876045D01*
X213802678Y-58876045D02*
X214297916Y-58876045D01*
X214297916Y-58876045D02*
X214031250Y-59180807D01*
X214031250Y-59180807D02*
X214145535Y-59180807D01*
X214145535Y-59180807D02*
X214221726Y-59218902D01*
X214221726Y-59218902D02*
X214259821Y-59256997D01*
X214259821Y-59256997D02*
X214297916Y-59333188D01*
X214297916Y-59333188D02*
X214297916Y-59523664D01*
X214297916Y-59523664D02*
X214259821Y-59599854D01*
X214259821Y-59599854D02*
X214221726Y-59637950D01*
X214221726Y-59637950D02*
X214145535Y-59676045D01*
X214145535Y-59676045D02*
X213916964Y-59676045D01*
X213916964Y-59676045D02*
X213840773Y-59637950D01*
X213840773Y-59637950D02*
X213802678Y-59599854D01*
X214450298Y-59752235D02*
X215059821Y-59752235D01*
X215250298Y-59256997D02*
X215516964Y-59256997D01*
X215631250Y-59676045D02*
X215250298Y-59676045D01*
X215250298Y-59676045D02*
X215250298Y-58876045D01*
X215250298Y-58876045D02*
X215631250Y-58876045D01*
X215974108Y-59676045D02*
X215974108Y-58876045D01*
X215974108Y-58876045D02*
X216431251Y-59676045D01*
X216431251Y-59676045D02*
X216431251Y-58876045D01*
X213978868Y-71624140D02*
X213902678Y-71586045D01*
X213902678Y-71586045D02*
X213788392Y-71586045D01*
X213788392Y-71586045D02*
X213674106Y-71624140D01*
X213674106Y-71624140D02*
X213597916Y-71700330D01*
X213597916Y-71700330D02*
X213559821Y-71776521D01*
X213559821Y-71776521D02*
X213521725Y-71928902D01*
X213521725Y-71928902D02*
X213521725Y-72043188D01*
X213521725Y-72043188D02*
X213559821Y-72195569D01*
X213559821Y-72195569D02*
X213597916Y-72271759D01*
X213597916Y-72271759D02*
X213674106Y-72347950D01*
X213674106Y-72347950D02*
X213788392Y-72386045D01*
X213788392Y-72386045D02*
X213864583Y-72386045D01*
X213864583Y-72386045D02*
X213978868Y-72347950D01*
X213978868Y-72347950D02*
X214016964Y-72309854D01*
X214016964Y-72309854D02*
X214016964Y-72043188D01*
X214016964Y-72043188D02*
X213864583Y-72043188D01*
X214359821Y-72386045D02*
X214359821Y-71586045D01*
X214359821Y-71586045D02*
X214664583Y-71586045D01*
X214664583Y-71586045D02*
X214740773Y-71624140D01*
X214740773Y-71624140D02*
X214778868Y-71662235D01*
X214778868Y-71662235D02*
X214816964Y-71738426D01*
X214816964Y-71738426D02*
X214816964Y-71852711D01*
X214816964Y-71852711D02*
X214778868Y-71928902D01*
X214778868Y-71928902D02*
X214740773Y-71966997D01*
X214740773Y-71966997D02*
X214664583Y-72005092D01*
X214664583Y-72005092D02*
X214359821Y-72005092D01*
X215121725Y-71662235D02*
X215159821Y-71624140D01*
X215159821Y-71624140D02*
X215236011Y-71586045D01*
X215236011Y-71586045D02*
X215426487Y-71586045D01*
X215426487Y-71586045D02*
X215502678Y-71624140D01*
X215502678Y-71624140D02*
X215540773Y-71662235D01*
X215540773Y-71662235D02*
X215578868Y-71738426D01*
X215578868Y-71738426D02*
X215578868Y-71814616D01*
X215578868Y-71814616D02*
X215540773Y-71928902D01*
X215540773Y-71928902D02*
X215083630Y-72386045D01*
X215083630Y-72386045D02*
X215578868Y-72386045D01*
X215845535Y-71586045D02*
X216378869Y-71586045D01*
X216378869Y-71586045D02*
X216036011Y-72386045D01*
X213714583Y-51256045D02*
X213981250Y-52056045D01*
X213981250Y-52056045D02*
X214247916Y-51256045D01*
X214781249Y-51636997D02*
X214895535Y-51675092D01*
X214895535Y-51675092D02*
X214933630Y-51713188D01*
X214933630Y-51713188D02*
X214971726Y-51789378D01*
X214971726Y-51789378D02*
X214971726Y-51903664D01*
X214971726Y-51903664D02*
X214933630Y-51979854D01*
X214933630Y-51979854D02*
X214895535Y-52017950D01*
X214895535Y-52017950D02*
X214819345Y-52056045D01*
X214819345Y-52056045D02*
X214514583Y-52056045D01*
X214514583Y-52056045D02*
X214514583Y-51256045D01*
X214514583Y-51256045D02*
X214781249Y-51256045D01*
X214781249Y-51256045D02*
X214857440Y-51294140D01*
X214857440Y-51294140D02*
X214895535Y-51332235D01*
X214895535Y-51332235D02*
X214933630Y-51408426D01*
X214933630Y-51408426D02*
X214933630Y-51484616D01*
X214933630Y-51484616D02*
X214895535Y-51560807D01*
X214895535Y-51560807D02*
X214857440Y-51598902D01*
X214857440Y-51598902D02*
X214781249Y-51636997D01*
X214781249Y-51636997D02*
X214514583Y-51636997D01*
X215314583Y-51256045D02*
X215314583Y-51903664D01*
X215314583Y-51903664D02*
X215352678Y-51979854D01*
X215352678Y-51979854D02*
X215390773Y-52017950D01*
X215390773Y-52017950D02*
X215466964Y-52056045D01*
X215466964Y-52056045D02*
X215619345Y-52056045D01*
X215619345Y-52056045D02*
X215695535Y-52017950D01*
X215695535Y-52017950D02*
X215733630Y-51979854D01*
X215733630Y-51979854D02*
X215771726Y-51903664D01*
X215771726Y-51903664D02*
X215771726Y-51256045D01*
X216114582Y-52017950D02*
X216228868Y-52056045D01*
X216228868Y-52056045D02*
X216419344Y-52056045D01*
X216419344Y-52056045D02*
X216495535Y-52017950D01*
X216495535Y-52017950D02*
X216533630Y-51979854D01*
X216533630Y-51979854D02*
X216571725Y-51903664D01*
X216571725Y-51903664D02*
X216571725Y-51827473D01*
X216571725Y-51827473D02*
X216533630Y-51751283D01*
X216533630Y-51751283D02*
X216495535Y-51713188D01*
X216495535Y-51713188D02*
X216419344Y-51675092D01*
X216419344Y-51675092D02*
X216266963Y-51636997D01*
X216266963Y-51636997D02*
X216190773Y-51598902D01*
X216190773Y-51598902D02*
X216152678Y-51560807D01*
X216152678Y-51560807D02*
X216114582Y-51484616D01*
X216114582Y-51484616D02*
X216114582Y-51408426D01*
X216114582Y-51408426D02*
X216152678Y-51332235D01*
X216152678Y-51332235D02*
X216190773Y-51294140D01*
X216190773Y-51294140D02*
X216266963Y-51256045D01*
X216266963Y-51256045D02*
X216457440Y-51256045D01*
X216457440Y-51256045D02*
X216571725Y-51294140D01*
X202779821Y-76694140D02*
X202703631Y-76656045D01*
X202703631Y-76656045D02*
X202589345Y-76656045D01*
X202589345Y-76656045D02*
X202475059Y-76694140D01*
X202475059Y-76694140D02*
X202398869Y-76770330D01*
X202398869Y-76770330D02*
X202360774Y-76846521D01*
X202360774Y-76846521D02*
X202322678Y-76998902D01*
X202322678Y-76998902D02*
X202322678Y-77113188D01*
X202322678Y-77113188D02*
X202360774Y-77265569D01*
X202360774Y-77265569D02*
X202398869Y-77341759D01*
X202398869Y-77341759D02*
X202475059Y-77417950D01*
X202475059Y-77417950D02*
X202589345Y-77456045D01*
X202589345Y-77456045D02*
X202665536Y-77456045D01*
X202665536Y-77456045D02*
X202779821Y-77417950D01*
X202779821Y-77417950D02*
X202817917Y-77379854D01*
X202817917Y-77379854D02*
X202817917Y-77113188D01*
X202817917Y-77113188D02*
X202665536Y-77113188D01*
X203160774Y-77456045D02*
X203160774Y-76656045D01*
X203160774Y-76656045D02*
X203465536Y-76656045D01*
X203465536Y-76656045D02*
X203541726Y-76694140D01*
X203541726Y-76694140D02*
X203579821Y-76732235D01*
X203579821Y-76732235D02*
X203617917Y-76808426D01*
X203617917Y-76808426D02*
X203617917Y-76922711D01*
X203617917Y-76922711D02*
X203579821Y-76998902D01*
X203579821Y-76998902D02*
X203541726Y-77036997D01*
X203541726Y-77036997D02*
X203465536Y-77075092D01*
X203465536Y-77075092D02*
X203160774Y-77075092D01*
X204075059Y-76998902D02*
X203998869Y-76960807D01*
X203998869Y-76960807D02*
X203960774Y-76922711D01*
X203960774Y-76922711D02*
X203922678Y-76846521D01*
X203922678Y-76846521D02*
X203922678Y-76808426D01*
X203922678Y-76808426D02*
X203960774Y-76732235D01*
X203960774Y-76732235D02*
X203998869Y-76694140D01*
X203998869Y-76694140D02*
X204075059Y-76656045D01*
X204075059Y-76656045D02*
X204227440Y-76656045D01*
X204227440Y-76656045D02*
X204303631Y-76694140D01*
X204303631Y-76694140D02*
X204341726Y-76732235D01*
X204341726Y-76732235D02*
X204379821Y-76808426D01*
X204379821Y-76808426D02*
X204379821Y-76846521D01*
X204379821Y-76846521D02*
X204341726Y-76922711D01*
X204341726Y-76922711D02*
X204303631Y-76960807D01*
X204303631Y-76960807D02*
X204227440Y-76998902D01*
X204227440Y-76998902D02*
X204075059Y-76998902D01*
X204075059Y-76998902D02*
X203998869Y-77036997D01*
X203998869Y-77036997D02*
X203960774Y-77075092D01*
X203960774Y-77075092D02*
X203922678Y-77151283D01*
X203922678Y-77151283D02*
X203922678Y-77303664D01*
X203922678Y-77303664D02*
X203960774Y-77379854D01*
X203960774Y-77379854D02*
X203998869Y-77417950D01*
X203998869Y-77417950D02*
X204075059Y-77456045D01*
X204075059Y-77456045D02*
X204227440Y-77456045D01*
X204227440Y-77456045D02*
X204303631Y-77417950D01*
X204303631Y-77417950D02*
X204341726Y-77379854D01*
X204341726Y-77379854D02*
X204379821Y-77303664D01*
X204379821Y-77303664D02*
X204379821Y-77151283D01*
X204379821Y-77151283D02*
X204341726Y-77075092D01*
X204341726Y-77075092D02*
X204303631Y-77036997D01*
X204303631Y-77036997D02*
X204227440Y-76998902D01*
X213978868Y-86854140D02*
X213902678Y-86816045D01*
X213902678Y-86816045D02*
X213788392Y-86816045D01*
X213788392Y-86816045D02*
X213674106Y-86854140D01*
X213674106Y-86854140D02*
X213597916Y-86930330D01*
X213597916Y-86930330D02*
X213559821Y-87006521D01*
X213559821Y-87006521D02*
X213521725Y-87158902D01*
X213521725Y-87158902D02*
X213521725Y-87273188D01*
X213521725Y-87273188D02*
X213559821Y-87425569D01*
X213559821Y-87425569D02*
X213597916Y-87501759D01*
X213597916Y-87501759D02*
X213674106Y-87577950D01*
X213674106Y-87577950D02*
X213788392Y-87616045D01*
X213788392Y-87616045D02*
X213864583Y-87616045D01*
X213864583Y-87616045D02*
X213978868Y-87577950D01*
X213978868Y-87577950D02*
X214016964Y-87539854D01*
X214016964Y-87539854D02*
X214016964Y-87273188D01*
X214016964Y-87273188D02*
X213864583Y-87273188D01*
X214359821Y-87616045D02*
X214359821Y-86816045D01*
X214359821Y-86816045D02*
X214664583Y-86816045D01*
X214664583Y-86816045D02*
X214740773Y-86854140D01*
X214740773Y-86854140D02*
X214778868Y-86892235D01*
X214778868Y-86892235D02*
X214816964Y-86968426D01*
X214816964Y-86968426D02*
X214816964Y-87082711D01*
X214816964Y-87082711D02*
X214778868Y-87158902D01*
X214778868Y-87158902D02*
X214740773Y-87196997D01*
X214740773Y-87196997D02*
X214664583Y-87235092D01*
X214664583Y-87235092D02*
X214359821Y-87235092D01*
X215121725Y-86892235D02*
X215159821Y-86854140D01*
X215159821Y-86854140D02*
X215236011Y-86816045D01*
X215236011Y-86816045D02*
X215426487Y-86816045D01*
X215426487Y-86816045D02*
X215502678Y-86854140D01*
X215502678Y-86854140D02*
X215540773Y-86892235D01*
X215540773Y-86892235D02*
X215578868Y-86968426D01*
X215578868Y-86968426D02*
X215578868Y-87044616D01*
X215578868Y-87044616D02*
X215540773Y-87158902D01*
X215540773Y-87158902D02*
X215083630Y-87616045D01*
X215083630Y-87616045D02*
X215578868Y-87616045D01*
X216074107Y-86816045D02*
X216150297Y-86816045D01*
X216150297Y-86816045D02*
X216226488Y-86854140D01*
X216226488Y-86854140D02*
X216264583Y-86892235D01*
X216264583Y-86892235D02*
X216302678Y-86968426D01*
X216302678Y-86968426D02*
X216340773Y-87120807D01*
X216340773Y-87120807D02*
X216340773Y-87311283D01*
X216340773Y-87311283D02*
X216302678Y-87463664D01*
X216302678Y-87463664D02*
X216264583Y-87539854D01*
X216264583Y-87539854D02*
X216226488Y-87577950D01*
X216226488Y-87577950D02*
X216150297Y-87616045D01*
X216150297Y-87616045D02*
X216074107Y-87616045D01*
X216074107Y-87616045D02*
X215997916Y-87577950D01*
X215997916Y-87577950D02*
X215959821Y-87539854D01*
X215959821Y-87539854D02*
X215921726Y-87463664D01*
X215921726Y-87463664D02*
X215883630Y-87311283D01*
X215883630Y-87311283D02*
X215883630Y-87120807D01*
X215883630Y-87120807D02*
X215921726Y-86968426D01*
X215921726Y-86968426D02*
X215959821Y-86892235D01*
X215959821Y-86892235D02*
X215997916Y-86854140D01*
X215997916Y-86854140D02*
X216074107Y-86816045D01*
X212255450Y-97768988D02*
X212293545Y-97654702D01*
X212293545Y-97654702D02*
X212293545Y-97464226D01*
X212293545Y-97464226D02*
X212255450Y-97388035D01*
X212255450Y-97388035D02*
X212217354Y-97349940D01*
X212217354Y-97349940D02*
X212141164Y-97311845D01*
X212141164Y-97311845D02*
X212064973Y-97311845D01*
X212064973Y-97311845D02*
X211988783Y-97349940D01*
X211988783Y-97349940D02*
X211950688Y-97388035D01*
X211950688Y-97388035D02*
X211912592Y-97464226D01*
X211912592Y-97464226D02*
X211874497Y-97616607D01*
X211874497Y-97616607D02*
X211836402Y-97692797D01*
X211836402Y-97692797D02*
X211798307Y-97730892D01*
X211798307Y-97730892D02*
X211722116Y-97768988D01*
X211722116Y-97768988D02*
X211645926Y-97768988D01*
X211645926Y-97768988D02*
X211569735Y-97730892D01*
X211569735Y-97730892D02*
X211531640Y-97692797D01*
X211531640Y-97692797D02*
X211493545Y-97616607D01*
X211493545Y-97616607D02*
X211493545Y-97426130D01*
X211493545Y-97426130D02*
X211531640Y-97311845D01*
X211493545Y-97045178D02*
X212293545Y-96854702D01*
X212293545Y-96854702D02*
X211722116Y-96702321D01*
X211722116Y-96702321D02*
X212293545Y-96549940D01*
X212293545Y-96549940D02*
X211493545Y-96359464D01*
X212293545Y-96054701D02*
X211493545Y-96054701D01*
X211493545Y-96054701D02*
X211493545Y-95864225D01*
X211493545Y-95864225D02*
X211531640Y-95749939D01*
X211531640Y-95749939D02*
X211607830Y-95673749D01*
X211607830Y-95673749D02*
X211684021Y-95635654D01*
X211684021Y-95635654D02*
X211836402Y-95597558D01*
X211836402Y-95597558D02*
X211950688Y-95597558D01*
X211950688Y-95597558D02*
X212103069Y-95635654D01*
X212103069Y-95635654D02*
X212179259Y-95673749D01*
X212179259Y-95673749D02*
X212255450Y-95749939D01*
X212255450Y-95749939D02*
X212293545Y-95864225D01*
X212293545Y-95864225D02*
X212293545Y-96054701D01*
X212293545Y-95254701D02*
X211493545Y-95254701D01*
X211493545Y-94721368D02*
X211493545Y-94568987D01*
X211493545Y-94568987D02*
X211531640Y-94492797D01*
X211531640Y-94492797D02*
X211607830Y-94416606D01*
X211607830Y-94416606D02*
X211760211Y-94378511D01*
X211760211Y-94378511D02*
X212026878Y-94378511D01*
X212026878Y-94378511D02*
X212179259Y-94416606D01*
X212179259Y-94416606D02*
X212255450Y-94492797D01*
X212255450Y-94492797D02*
X212293545Y-94568987D01*
X212293545Y-94568987D02*
X212293545Y-94721368D01*
X212293545Y-94721368D02*
X212255450Y-94797559D01*
X212255450Y-94797559D02*
X212179259Y-94873749D01*
X212179259Y-94873749D02*
X212026878Y-94911845D01*
X212026878Y-94911845D02*
X211760211Y-94911845D01*
X211760211Y-94911845D02*
X211607830Y-94873749D01*
X211607830Y-94873749D02*
X211531640Y-94797559D01*
X211531640Y-94797559D02*
X211493545Y-94721368D01*
X202779821Y-63994140D02*
X202703631Y-63956045D01*
X202703631Y-63956045D02*
X202589345Y-63956045D01*
X202589345Y-63956045D02*
X202475059Y-63994140D01*
X202475059Y-63994140D02*
X202398869Y-64070330D01*
X202398869Y-64070330D02*
X202360774Y-64146521D01*
X202360774Y-64146521D02*
X202322678Y-64298902D01*
X202322678Y-64298902D02*
X202322678Y-64413188D01*
X202322678Y-64413188D02*
X202360774Y-64565569D01*
X202360774Y-64565569D02*
X202398869Y-64641759D01*
X202398869Y-64641759D02*
X202475059Y-64717950D01*
X202475059Y-64717950D02*
X202589345Y-64756045D01*
X202589345Y-64756045D02*
X202665536Y-64756045D01*
X202665536Y-64756045D02*
X202779821Y-64717950D01*
X202779821Y-64717950D02*
X202817917Y-64679854D01*
X202817917Y-64679854D02*
X202817917Y-64413188D01*
X202817917Y-64413188D02*
X202665536Y-64413188D01*
X203160774Y-64756045D02*
X203160774Y-63956045D01*
X203160774Y-63956045D02*
X203465536Y-63956045D01*
X203465536Y-63956045D02*
X203541726Y-63994140D01*
X203541726Y-63994140D02*
X203579821Y-64032235D01*
X203579821Y-64032235D02*
X203617917Y-64108426D01*
X203617917Y-64108426D02*
X203617917Y-64222711D01*
X203617917Y-64222711D02*
X203579821Y-64298902D01*
X203579821Y-64298902D02*
X203541726Y-64336997D01*
X203541726Y-64336997D02*
X203465536Y-64375092D01*
X203465536Y-64375092D02*
X203160774Y-64375092D01*
X204303631Y-64222711D02*
X204303631Y-64756045D01*
X204113155Y-63917950D02*
X203922678Y-64489378D01*
X203922678Y-64489378D02*
X204417917Y-64489378D01*
X202779821Y-71614140D02*
X202703631Y-71576045D01*
X202703631Y-71576045D02*
X202589345Y-71576045D01*
X202589345Y-71576045D02*
X202475059Y-71614140D01*
X202475059Y-71614140D02*
X202398869Y-71690330D01*
X202398869Y-71690330D02*
X202360774Y-71766521D01*
X202360774Y-71766521D02*
X202322678Y-71918902D01*
X202322678Y-71918902D02*
X202322678Y-72033188D01*
X202322678Y-72033188D02*
X202360774Y-72185569D01*
X202360774Y-72185569D02*
X202398869Y-72261759D01*
X202398869Y-72261759D02*
X202475059Y-72337950D01*
X202475059Y-72337950D02*
X202589345Y-72376045D01*
X202589345Y-72376045D02*
X202665536Y-72376045D01*
X202665536Y-72376045D02*
X202779821Y-72337950D01*
X202779821Y-72337950D02*
X202817917Y-72299854D01*
X202817917Y-72299854D02*
X202817917Y-72033188D01*
X202817917Y-72033188D02*
X202665536Y-72033188D01*
X203160774Y-72376045D02*
X203160774Y-71576045D01*
X203160774Y-71576045D02*
X203465536Y-71576045D01*
X203465536Y-71576045D02*
X203541726Y-71614140D01*
X203541726Y-71614140D02*
X203579821Y-71652235D01*
X203579821Y-71652235D02*
X203617917Y-71728426D01*
X203617917Y-71728426D02*
X203617917Y-71842711D01*
X203617917Y-71842711D02*
X203579821Y-71918902D01*
X203579821Y-71918902D02*
X203541726Y-71956997D01*
X203541726Y-71956997D02*
X203465536Y-71995092D01*
X203465536Y-71995092D02*
X203160774Y-71995092D01*
X204303631Y-71576045D02*
X204151250Y-71576045D01*
X204151250Y-71576045D02*
X204075059Y-71614140D01*
X204075059Y-71614140D02*
X204036964Y-71652235D01*
X204036964Y-71652235D02*
X203960774Y-71766521D01*
X203960774Y-71766521D02*
X203922678Y-71918902D01*
X203922678Y-71918902D02*
X203922678Y-72223664D01*
X203922678Y-72223664D02*
X203960774Y-72299854D01*
X203960774Y-72299854D02*
X203998869Y-72337950D01*
X203998869Y-72337950D02*
X204075059Y-72376045D01*
X204075059Y-72376045D02*
X204227440Y-72376045D01*
X204227440Y-72376045D02*
X204303631Y-72337950D01*
X204303631Y-72337950D02*
X204341726Y-72299854D01*
X204341726Y-72299854D02*
X204379821Y-72223664D01*
X204379821Y-72223664D02*
X204379821Y-72033188D01*
X204379821Y-72033188D02*
X204341726Y-71956997D01*
X204341726Y-71956997D02*
X204303631Y-71918902D01*
X204303631Y-71918902D02*
X204227440Y-71880807D01*
X204227440Y-71880807D02*
X204075059Y-71880807D01*
X204075059Y-71880807D02*
X203998869Y-71918902D01*
X203998869Y-71918902D02*
X203960774Y-71956997D01*
X203960774Y-71956997D02*
X203922678Y-72033188D01*
X202748868Y-86854140D02*
X202672678Y-86816045D01*
X202672678Y-86816045D02*
X202558392Y-86816045D01*
X202558392Y-86816045D02*
X202444106Y-86854140D01*
X202444106Y-86854140D02*
X202367916Y-86930330D01*
X202367916Y-86930330D02*
X202329821Y-87006521D01*
X202329821Y-87006521D02*
X202291725Y-87158902D01*
X202291725Y-87158902D02*
X202291725Y-87273188D01*
X202291725Y-87273188D02*
X202329821Y-87425569D01*
X202329821Y-87425569D02*
X202367916Y-87501759D01*
X202367916Y-87501759D02*
X202444106Y-87577950D01*
X202444106Y-87577950D02*
X202558392Y-87616045D01*
X202558392Y-87616045D02*
X202634583Y-87616045D01*
X202634583Y-87616045D02*
X202748868Y-87577950D01*
X202748868Y-87577950D02*
X202786964Y-87539854D01*
X202786964Y-87539854D02*
X202786964Y-87273188D01*
X202786964Y-87273188D02*
X202634583Y-87273188D01*
X203129821Y-87616045D02*
X203129821Y-86816045D01*
X203129821Y-86816045D02*
X203434583Y-86816045D01*
X203434583Y-86816045D02*
X203510773Y-86854140D01*
X203510773Y-86854140D02*
X203548868Y-86892235D01*
X203548868Y-86892235D02*
X203586964Y-86968426D01*
X203586964Y-86968426D02*
X203586964Y-87082711D01*
X203586964Y-87082711D02*
X203548868Y-87158902D01*
X203548868Y-87158902D02*
X203510773Y-87196997D01*
X203510773Y-87196997D02*
X203434583Y-87235092D01*
X203434583Y-87235092D02*
X203129821Y-87235092D01*
X204348868Y-87616045D02*
X203891725Y-87616045D01*
X204120297Y-87616045D02*
X204120297Y-86816045D01*
X204120297Y-86816045D02*
X204044106Y-86930330D01*
X204044106Y-86930330D02*
X203967916Y-87006521D01*
X203967916Y-87006521D02*
X203891725Y-87044616D01*
X205110773Y-87616045D02*
X204653630Y-87616045D01*
X204882202Y-87616045D02*
X204882202Y-86816045D01*
X204882202Y-86816045D02*
X204806011Y-86930330D01*
X204806011Y-86930330D02*
X204729821Y-87006521D01*
X204729821Y-87006521D02*
X204653630Y-87044616D01*
X202779821Y-66534140D02*
X202703631Y-66496045D01*
X202703631Y-66496045D02*
X202589345Y-66496045D01*
X202589345Y-66496045D02*
X202475059Y-66534140D01*
X202475059Y-66534140D02*
X202398869Y-66610330D01*
X202398869Y-66610330D02*
X202360774Y-66686521D01*
X202360774Y-66686521D02*
X202322678Y-66838902D01*
X202322678Y-66838902D02*
X202322678Y-66953188D01*
X202322678Y-66953188D02*
X202360774Y-67105569D01*
X202360774Y-67105569D02*
X202398869Y-67181759D01*
X202398869Y-67181759D02*
X202475059Y-67257950D01*
X202475059Y-67257950D02*
X202589345Y-67296045D01*
X202589345Y-67296045D02*
X202665536Y-67296045D01*
X202665536Y-67296045D02*
X202779821Y-67257950D01*
X202779821Y-67257950D02*
X202817917Y-67219854D01*
X202817917Y-67219854D02*
X202817917Y-66953188D01*
X202817917Y-66953188D02*
X202665536Y-66953188D01*
X203160774Y-67296045D02*
X203160774Y-66496045D01*
X203160774Y-66496045D02*
X203465536Y-66496045D01*
X203465536Y-66496045D02*
X203541726Y-66534140D01*
X203541726Y-66534140D02*
X203579821Y-66572235D01*
X203579821Y-66572235D02*
X203617917Y-66648426D01*
X203617917Y-66648426D02*
X203617917Y-66762711D01*
X203617917Y-66762711D02*
X203579821Y-66838902D01*
X203579821Y-66838902D02*
X203541726Y-66876997D01*
X203541726Y-66876997D02*
X203465536Y-66915092D01*
X203465536Y-66915092D02*
X203160774Y-66915092D01*
X204341726Y-66496045D02*
X203960774Y-66496045D01*
X203960774Y-66496045D02*
X203922678Y-66876997D01*
X203922678Y-66876997D02*
X203960774Y-66838902D01*
X203960774Y-66838902D02*
X204036964Y-66800807D01*
X204036964Y-66800807D02*
X204227440Y-66800807D01*
X204227440Y-66800807D02*
X204303631Y-66838902D01*
X204303631Y-66838902D02*
X204341726Y-66876997D01*
X204341726Y-66876997D02*
X204379821Y-66953188D01*
X204379821Y-66953188D02*
X204379821Y-67143664D01*
X204379821Y-67143664D02*
X204341726Y-67219854D01*
X204341726Y-67219854D02*
X204303631Y-67257950D01*
X204303631Y-67257950D02*
X204227440Y-67296045D01*
X204227440Y-67296045D02*
X204036964Y-67296045D01*
X204036964Y-67296045D02*
X203960774Y-67257950D01*
X203960774Y-67257950D02*
X203922678Y-67219854D01*
X207175450Y-97883274D02*
X207213545Y-97768988D01*
X207213545Y-97768988D02*
X207213545Y-97578512D01*
X207213545Y-97578512D02*
X207175450Y-97502321D01*
X207175450Y-97502321D02*
X207137354Y-97464226D01*
X207137354Y-97464226D02*
X207061164Y-97426131D01*
X207061164Y-97426131D02*
X206984973Y-97426131D01*
X206984973Y-97426131D02*
X206908783Y-97464226D01*
X206908783Y-97464226D02*
X206870688Y-97502321D01*
X206870688Y-97502321D02*
X206832592Y-97578512D01*
X206832592Y-97578512D02*
X206794497Y-97730893D01*
X206794497Y-97730893D02*
X206756402Y-97807083D01*
X206756402Y-97807083D02*
X206718307Y-97845178D01*
X206718307Y-97845178D02*
X206642116Y-97883274D01*
X206642116Y-97883274D02*
X206565926Y-97883274D01*
X206565926Y-97883274D02*
X206489735Y-97845178D01*
X206489735Y-97845178D02*
X206451640Y-97807083D01*
X206451640Y-97807083D02*
X206413545Y-97730893D01*
X206413545Y-97730893D02*
X206413545Y-97540416D01*
X206413545Y-97540416D02*
X206451640Y-97426131D01*
X206413545Y-97159464D02*
X207213545Y-96968988D01*
X207213545Y-96968988D02*
X206642116Y-96816607D01*
X206642116Y-96816607D02*
X207213545Y-96664226D01*
X207213545Y-96664226D02*
X206413545Y-96473750D01*
X207137354Y-95711844D02*
X207175450Y-95749940D01*
X207175450Y-95749940D02*
X207213545Y-95864225D01*
X207213545Y-95864225D02*
X207213545Y-95940416D01*
X207213545Y-95940416D02*
X207175450Y-96054702D01*
X207175450Y-96054702D02*
X207099259Y-96130892D01*
X207099259Y-96130892D02*
X207023069Y-96168987D01*
X207023069Y-96168987D02*
X206870688Y-96207083D01*
X206870688Y-96207083D02*
X206756402Y-96207083D01*
X206756402Y-96207083D02*
X206604021Y-96168987D01*
X206604021Y-96168987D02*
X206527830Y-96130892D01*
X206527830Y-96130892D02*
X206451640Y-96054702D01*
X206451640Y-96054702D02*
X206413545Y-95940416D01*
X206413545Y-95940416D02*
X206413545Y-95864225D01*
X206413545Y-95864225D02*
X206451640Y-95749940D01*
X206451640Y-95749940D02*
X206489735Y-95711844D01*
X207213545Y-94988035D02*
X207213545Y-95368987D01*
X207213545Y-95368987D02*
X206413545Y-95368987D01*
X207213545Y-94721368D02*
X206413545Y-94721368D01*
X207213545Y-94264225D02*
X206756402Y-94607083D01*
X206413545Y-94264225D02*
X206870688Y-94721368D01*
X202741726Y-81774140D02*
X202665536Y-81736045D01*
X202665536Y-81736045D02*
X202551250Y-81736045D01*
X202551250Y-81736045D02*
X202436964Y-81774140D01*
X202436964Y-81774140D02*
X202360774Y-81850330D01*
X202360774Y-81850330D02*
X202322679Y-81926521D01*
X202322679Y-81926521D02*
X202284583Y-82078902D01*
X202284583Y-82078902D02*
X202284583Y-82193188D01*
X202284583Y-82193188D02*
X202322679Y-82345569D01*
X202322679Y-82345569D02*
X202360774Y-82421759D01*
X202360774Y-82421759D02*
X202436964Y-82497950D01*
X202436964Y-82497950D02*
X202551250Y-82536045D01*
X202551250Y-82536045D02*
X202627441Y-82536045D01*
X202627441Y-82536045D02*
X202741726Y-82497950D01*
X202741726Y-82497950D02*
X202779822Y-82459854D01*
X202779822Y-82459854D02*
X202779822Y-82193188D01*
X202779822Y-82193188D02*
X202627441Y-82193188D01*
X203122679Y-82536045D02*
X203122679Y-81736045D01*
X203122679Y-81736045D02*
X203579822Y-82536045D01*
X203579822Y-82536045D02*
X203579822Y-81736045D01*
X203960774Y-82536045D02*
X203960774Y-81736045D01*
X203960774Y-81736045D02*
X204151250Y-81736045D01*
X204151250Y-81736045D02*
X204265536Y-81774140D01*
X204265536Y-81774140D02*
X204341726Y-81850330D01*
X204341726Y-81850330D02*
X204379821Y-81926521D01*
X204379821Y-81926521D02*
X204417917Y-82078902D01*
X204417917Y-82078902D02*
X204417917Y-82193188D01*
X204417917Y-82193188D02*
X204379821Y-82345569D01*
X204379821Y-82345569D02*
X204341726Y-82421759D01*
X204341726Y-82421759D02*
X204265536Y-82497950D01*
X204265536Y-82497950D02*
X204151250Y-82536045D01*
X204151250Y-82536045D02*
X203960774Y-82536045D01*
X106235595Y-56763450D02*
X106378452Y-56811069D01*
X106378452Y-56811069D02*
X106616547Y-56811069D01*
X106616547Y-56811069D02*
X106711785Y-56763450D01*
X106711785Y-56763450D02*
X106759404Y-56715830D01*
X106759404Y-56715830D02*
X106807023Y-56620592D01*
X106807023Y-56620592D02*
X106807023Y-56525354D01*
X106807023Y-56525354D02*
X106759404Y-56430116D01*
X106759404Y-56430116D02*
X106711785Y-56382497D01*
X106711785Y-56382497D02*
X106616547Y-56334878D01*
X106616547Y-56334878D02*
X106426071Y-56287259D01*
X106426071Y-56287259D02*
X106330833Y-56239640D01*
X106330833Y-56239640D02*
X106283214Y-56192021D01*
X106283214Y-56192021D02*
X106235595Y-56096783D01*
X106235595Y-56096783D02*
X106235595Y-56001545D01*
X106235595Y-56001545D02*
X106283214Y-55906307D01*
X106283214Y-55906307D02*
X106330833Y-55858688D01*
X106330833Y-55858688D02*
X106426071Y-55811069D01*
X106426071Y-55811069D02*
X106664166Y-55811069D01*
X106664166Y-55811069D02*
X106807023Y-55858688D01*
X107759404Y-56811069D02*
X107187976Y-56811069D01*
X107473690Y-56811069D02*
X107473690Y-55811069D01*
X107473690Y-55811069D02*
X107378452Y-55953926D01*
X107378452Y-55953926D02*
X107283214Y-56049164D01*
X107283214Y-56049164D02*
X107187976Y-56096783D01*
X163385595Y-47238450D02*
X163528452Y-47286069D01*
X163528452Y-47286069D02*
X163766547Y-47286069D01*
X163766547Y-47286069D02*
X163861785Y-47238450D01*
X163861785Y-47238450D02*
X163909404Y-47190830D01*
X163909404Y-47190830D02*
X163957023Y-47095592D01*
X163957023Y-47095592D02*
X163957023Y-47000354D01*
X163957023Y-47000354D02*
X163909404Y-46905116D01*
X163909404Y-46905116D02*
X163861785Y-46857497D01*
X163861785Y-46857497D02*
X163766547Y-46809878D01*
X163766547Y-46809878D02*
X163576071Y-46762259D01*
X163576071Y-46762259D02*
X163480833Y-46714640D01*
X163480833Y-46714640D02*
X163433214Y-46667021D01*
X163433214Y-46667021D02*
X163385595Y-46571783D01*
X163385595Y-46571783D02*
X163385595Y-46476545D01*
X163385595Y-46476545D02*
X163433214Y-46381307D01*
X163433214Y-46381307D02*
X163480833Y-46333688D01*
X163480833Y-46333688D02*
X163576071Y-46286069D01*
X163576071Y-46286069D02*
X163814166Y-46286069D01*
X163814166Y-46286069D02*
X163957023Y-46333688D01*
X164814166Y-46619402D02*
X164814166Y-47286069D01*
X164576071Y-46238450D02*
X164337976Y-46952735D01*
X164337976Y-46952735D02*
X164957023Y-46952735D01*
X144335595Y-61525950D02*
X144478452Y-61573569D01*
X144478452Y-61573569D02*
X144716547Y-61573569D01*
X144716547Y-61573569D02*
X144811785Y-61525950D01*
X144811785Y-61525950D02*
X144859404Y-61478330D01*
X144859404Y-61478330D02*
X144907023Y-61383092D01*
X144907023Y-61383092D02*
X144907023Y-61287854D01*
X144907023Y-61287854D02*
X144859404Y-61192616D01*
X144859404Y-61192616D02*
X144811785Y-61144997D01*
X144811785Y-61144997D02*
X144716547Y-61097378D01*
X144716547Y-61097378D02*
X144526071Y-61049759D01*
X144526071Y-61049759D02*
X144430833Y-61002140D01*
X144430833Y-61002140D02*
X144383214Y-60954521D01*
X144383214Y-60954521D02*
X144335595Y-60859283D01*
X144335595Y-60859283D02*
X144335595Y-60764045D01*
X144335595Y-60764045D02*
X144383214Y-60668807D01*
X144383214Y-60668807D02*
X144430833Y-60621188D01*
X144430833Y-60621188D02*
X144526071Y-60573569D01*
X144526071Y-60573569D02*
X144764166Y-60573569D01*
X144764166Y-60573569D02*
X144907023Y-60621188D01*
X145240357Y-60573569D02*
X145907023Y-60573569D01*
X145907023Y-60573569D02*
X145478452Y-61573569D01*
X163385595Y-66288450D02*
X163528452Y-66336069D01*
X163528452Y-66336069D02*
X163766547Y-66336069D01*
X163766547Y-66336069D02*
X163861785Y-66288450D01*
X163861785Y-66288450D02*
X163909404Y-66240830D01*
X163909404Y-66240830D02*
X163957023Y-66145592D01*
X163957023Y-66145592D02*
X163957023Y-66050354D01*
X163957023Y-66050354D02*
X163909404Y-65955116D01*
X163909404Y-65955116D02*
X163861785Y-65907497D01*
X163861785Y-65907497D02*
X163766547Y-65859878D01*
X163766547Y-65859878D02*
X163576071Y-65812259D01*
X163576071Y-65812259D02*
X163480833Y-65764640D01*
X163480833Y-65764640D02*
X163433214Y-65717021D01*
X163433214Y-65717021D02*
X163385595Y-65621783D01*
X163385595Y-65621783D02*
X163385595Y-65526545D01*
X163385595Y-65526545D02*
X163433214Y-65431307D01*
X163433214Y-65431307D02*
X163480833Y-65383688D01*
X163480833Y-65383688D02*
X163576071Y-65336069D01*
X163576071Y-65336069D02*
X163814166Y-65336069D01*
X163814166Y-65336069D02*
X163957023Y-65383688D01*
X164528452Y-65764640D02*
X164433214Y-65717021D01*
X164433214Y-65717021D02*
X164385595Y-65669402D01*
X164385595Y-65669402D02*
X164337976Y-65574164D01*
X164337976Y-65574164D02*
X164337976Y-65526545D01*
X164337976Y-65526545D02*
X164385595Y-65431307D01*
X164385595Y-65431307D02*
X164433214Y-65383688D01*
X164433214Y-65383688D02*
X164528452Y-65336069D01*
X164528452Y-65336069D02*
X164718928Y-65336069D01*
X164718928Y-65336069D02*
X164814166Y-65383688D01*
X164814166Y-65383688D02*
X164861785Y-65431307D01*
X164861785Y-65431307D02*
X164909404Y-65526545D01*
X164909404Y-65526545D02*
X164909404Y-65574164D01*
X164909404Y-65574164D02*
X164861785Y-65669402D01*
X164861785Y-65669402D02*
X164814166Y-65717021D01*
X164814166Y-65717021D02*
X164718928Y-65764640D01*
X164718928Y-65764640D02*
X164528452Y-65764640D01*
X164528452Y-65764640D02*
X164433214Y-65812259D01*
X164433214Y-65812259D02*
X164385595Y-65859878D01*
X164385595Y-65859878D02*
X164337976Y-65955116D01*
X164337976Y-65955116D02*
X164337976Y-66145592D01*
X164337976Y-66145592D02*
X164385595Y-66240830D01*
X164385595Y-66240830D02*
X164433214Y-66288450D01*
X164433214Y-66288450D02*
X164528452Y-66336069D01*
X164528452Y-66336069D02*
X164718928Y-66336069D01*
X164718928Y-66336069D02*
X164814166Y-66288450D01*
X164814166Y-66288450D02*
X164861785Y-66240830D01*
X164861785Y-66240830D02*
X164909404Y-66145592D01*
X164909404Y-66145592D02*
X164909404Y-65955116D01*
X164909404Y-65955116D02*
X164861785Y-65859878D01*
X164861785Y-65859878D02*
X164814166Y-65812259D01*
X164814166Y-65812259D02*
X164718928Y-65764640D01*
X181959405Y-68669700D02*
X182102262Y-68717319D01*
X182102262Y-68717319D02*
X182340357Y-68717319D01*
X182340357Y-68717319D02*
X182435595Y-68669700D01*
X182435595Y-68669700D02*
X182483214Y-68622080D01*
X182483214Y-68622080D02*
X182530833Y-68526842D01*
X182530833Y-68526842D02*
X182530833Y-68431604D01*
X182530833Y-68431604D02*
X182483214Y-68336366D01*
X182483214Y-68336366D02*
X182435595Y-68288747D01*
X182435595Y-68288747D02*
X182340357Y-68241128D01*
X182340357Y-68241128D02*
X182149881Y-68193509D01*
X182149881Y-68193509D02*
X182054643Y-68145890D01*
X182054643Y-68145890D02*
X182007024Y-68098271D01*
X182007024Y-68098271D02*
X181959405Y-68003033D01*
X181959405Y-68003033D02*
X181959405Y-67907795D01*
X181959405Y-67907795D02*
X182007024Y-67812557D01*
X182007024Y-67812557D02*
X182054643Y-67764938D01*
X182054643Y-67764938D02*
X182149881Y-67717319D01*
X182149881Y-67717319D02*
X182387976Y-67717319D01*
X182387976Y-67717319D02*
X182530833Y-67764938D01*
X183483214Y-68717319D02*
X182911786Y-68717319D01*
X183197500Y-68717319D02*
X183197500Y-67717319D01*
X183197500Y-67717319D02*
X183102262Y-67860176D01*
X183102262Y-67860176D02*
X183007024Y-67955414D01*
X183007024Y-67955414D02*
X182911786Y-68003033D01*
X183816548Y-67717319D02*
X184483214Y-67717319D01*
X184483214Y-67717319D02*
X184054643Y-68717319D01*
X124809405Y-85338450D02*
X124952262Y-85386069D01*
X124952262Y-85386069D02*
X125190357Y-85386069D01*
X125190357Y-85386069D02*
X125285595Y-85338450D01*
X125285595Y-85338450D02*
X125333214Y-85290830D01*
X125333214Y-85290830D02*
X125380833Y-85195592D01*
X125380833Y-85195592D02*
X125380833Y-85100354D01*
X125380833Y-85100354D02*
X125333214Y-85005116D01*
X125333214Y-85005116D02*
X125285595Y-84957497D01*
X125285595Y-84957497D02*
X125190357Y-84909878D01*
X125190357Y-84909878D02*
X124999881Y-84862259D01*
X124999881Y-84862259D02*
X124904643Y-84814640D01*
X124904643Y-84814640D02*
X124857024Y-84767021D01*
X124857024Y-84767021D02*
X124809405Y-84671783D01*
X124809405Y-84671783D02*
X124809405Y-84576545D01*
X124809405Y-84576545D02*
X124857024Y-84481307D01*
X124857024Y-84481307D02*
X124904643Y-84433688D01*
X124904643Y-84433688D02*
X124999881Y-84386069D01*
X124999881Y-84386069D02*
X125237976Y-84386069D01*
X125237976Y-84386069D02*
X125380833Y-84433688D01*
X126333214Y-85386069D02*
X125761786Y-85386069D01*
X126047500Y-85386069D02*
X126047500Y-84386069D01*
X126047500Y-84386069D02*
X125952262Y-84528926D01*
X125952262Y-84528926D02*
X125857024Y-84624164D01*
X125857024Y-84624164D02*
X125761786Y-84671783D01*
X126952262Y-84386069D02*
X127047500Y-84386069D01*
X127047500Y-84386069D02*
X127142738Y-84433688D01*
X127142738Y-84433688D02*
X127190357Y-84481307D01*
X127190357Y-84481307D02*
X127237976Y-84576545D01*
X127237976Y-84576545D02*
X127285595Y-84767021D01*
X127285595Y-84767021D02*
X127285595Y-85005116D01*
X127285595Y-85005116D02*
X127237976Y-85195592D01*
X127237976Y-85195592D02*
X127190357Y-85290830D01*
X127190357Y-85290830D02*
X127142738Y-85338450D01*
X127142738Y-85338450D02*
X127047500Y-85386069D01*
X127047500Y-85386069D02*
X126952262Y-85386069D01*
X126952262Y-85386069D02*
X126857024Y-85338450D01*
X126857024Y-85338450D02*
X126809405Y-85290830D01*
X126809405Y-85290830D02*
X126761786Y-85195592D01*
X126761786Y-85195592D02*
X126714167Y-85005116D01*
X126714167Y-85005116D02*
X126714167Y-84767021D01*
X126714167Y-84767021D02*
X126761786Y-84576545D01*
X126761786Y-84576545D02*
X126809405Y-84481307D01*
X126809405Y-84481307D02*
X126857024Y-84433688D01*
X126857024Y-84433688D02*
X126952262Y-84386069D01*
X208486779Y-114918717D02*
X208612443Y-115001688D01*
X208612443Y-115001688D02*
X208842426Y-115063311D01*
X208842426Y-115063311D02*
X208946743Y-115041964D01*
X208946743Y-115041964D02*
X209005064Y-115008292D01*
X209005064Y-115008292D02*
X209075710Y-114928624D01*
X209075710Y-114928624D02*
X209100360Y-114836631D01*
X209100360Y-114836631D02*
X209079013Y-114732314D01*
X209079013Y-114732314D02*
X209045341Y-114673992D01*
X209045341Y-114673992D02*
X208965673Y-114603347D01*
X208965673Y-114603347D02*
X208794012Y-114508051D01*
X208794012Y-114508051D02*
X208714343Y-114437405D01*
X208714343Y-114437405D02*
X208680672Y-114379084D01*
X208680672Y-114379084D02*
X208659325Y-114274766D01*
X208659325Y-114274766D02*
X208683974Y-114182773D01*
X208683974Y-114182773D02*
X208754620Y-114103105D01*
X208754620Y-114103105D02*
X208812941Y-114069434D01*
X208812941Y-114069434D02*
X208917259Y-114048086D01*
X208917259Y-114048086D02*
X209147241Y-114109710D01*
X209147241Y-114109710D02*
X209272906Y-114192681D01*
X209946341Y-115359104D02*
X209394383Y-115211208D01*
X209670362Y-115285156D02*
X209929181Y-114319230D01*
X209929181Y-114319230D02*
X209800214Y-114432570D01*
X209800214Y-114432570D02*
X209683572Y-114499914D01*
X209683572Y-114499914D02*
X209579254Y-114521261D01*
X211079093Y-114627348D02*
X210619128Y-114504101D01*
X210619128Y-114504101D02*
X210449885Y-114951741D01*
X210449885Y-114951741D02*
X210508206Y-114918069D01*
X210508206Y-114918069D02*
X210612523Y-114896722D01*
X210612523Y-114896722D02*
X210842506Y-114958346D01*
X210842506Y-114958346D02*
X210922174Y-115028992D01*
X210922174Y-115028992D02*
X210955846Y-115087313D01*
X210955846Y-115087313D02*
X210977193Y-115191631D01*
X210977193Y-115191631D02*
X210915569Y-115421613D01*
X210915569Y-115421613D02*
X210844923Y-115501281D01*
X210844923Y-115501281D02*
X210786602Y-115534953D01*
X210786602Y-115534953D02*
X210682284Y-115556300D01*
X210682284Y-115556300D02*
X210452302Y-115494676D01*
X210452302Y-115494676D02*
X210372634Y-115424030D01*
X210372634Y-115424030D02*
X210338962Y-115365709D01*
%TO.C,S16*%
X176197500Y-51467500D02*
X176197500Y-50467500D01*
X176197500Y-64467500D02*
X176197500Y-63467500D01*
X190197500Y-50467500D02*
X190197500Y-51467500D01*
X189197500Y-50467500D02*
X190197500Y-50467500D01*
X190197500Y-64467500D02*
X189197500Y-64467500D01*
X190197500Y-63467500D02*
X190197500Y-64467500D01*
X177197500Y-64467500D02*
X176197500Y-64467500D01*
X176197500Y-50467500D02*
X177197500Y-50467500D01*
%TO.C,S18*%
X176197500Y-88567500D02*
X177197500Y-88567500D01*
X177197500Y-102567500D02*
X176197500Y-102567500D01*
X190197500Y-101567500D02*
X190197500Y-102567500D01*
X190197500Y-102567500D02*
X189197500Y-102567500D01*
X189197500Y-88567500D02*
X190197500Y-88567500D01*
X190197500Y-88567500D02*
X190197500Y-89567500D01*
X176197500Y-102567500D02*
X176197500Y-101567500D01*
X176197500Y-89567500D02*
X176197500Y-88567500D01*
%TO.C,S14*%
X180830434Y-109671319D02*
X181815242Y-109844968D01*
X179384167Y-123632276D02*
X178399359Y-123458628D01*
X192360316Y-124904895D02*
X192186668Y-125889703D01*
X192186668Y-125889703D02*
X191201860Y-125716054D01*
X193632935Y-111928746D02*
X194617743Y-112102394D01*
X194617743Y-112102394D02*
X194444094Y-113087202D01*
X178399359Y-123458628D02*
X178573008Y-122473820D01*
X180656786Y-110656127D02*
X180830434Y-109671319D01*
%TO.C,S13*%
X158977103Y-107515195D02*
X159973298Y-107602351D01*
X158753118Y-121549076D02*
X157756923Y-121461921D01*
X171790804Y-121685906D02*
X171703649Y-122682101D01*
X171703649Y-122682101D02*
X170707454Y-122594945D01*
X171927634Y-108648220D02*
X172923829Y-108735375D01*
X172923829Y-108735375D02*
X172836673Y-109731570D01*
X157756923Y-121461921D02*
X157844079Y-120465726D01*
X158889948Y-108511390D02*
X158977103Y-107515195D01*
%TO.C,S12*%
X157147500Y-86186250D02*
X158147500Y-86186250D01*
X158147500Y-100186250D02*
X157147500Y-100186250D01*
X171147500Y-99186250D02*
X171147500Y-100186250D01*
X171147500Y-100186250D02*
X170147500Y-100186250D01*
X170147500Y-86186250D02*
X171147500Y-86186250D01*
X171147500Y-86186250D02*
X171147500Y-87186250D01*
X157147500Y-100186250D02*
X157147500Y-99186250D01*
X157147500Y-87186250D02*
X157147500Y-86186250D01*
%TO.C,S11*%
X138097500Y-81423750D02*
X139097500Y-81423750D01*
X139097500Y-95423750D02*
X138097500Y-95423750D01*
X152097500Y-94423750D02*
X152097500Y-95423750D01*
X152097500Y-95423750D02*
X151097500Y-95423750D01*
X151097500Y-81423750D02*
X152097500Y-81423750D01*
X152097500Y-81423750D02*
X152097500Y-82423750D01*
X138097500Y-95423750D02*
X138097500Y-94423750D01*
X138097500Y-82423750D02*
X138097500Y-81423750D01*
%TO.C,S9*%
X99997500Y-95711250D02*
X100997500Y-95711250D01*
X100997500Y-109711250D02*
X99997500Y-109711250D01*
X113997500Y-108711250D02*
X113997500Y-109711250D01*
X113997500Y-109711250D02*
X112997500Y-109711250D01*
X112997500Y-95711250D02*
X113997500Y-95711250D01*
X113997500Y-95711250D02*
X113997500Y-96711250D01*
X99997500Y-109711250D02*
X99997500Y-108711250D01*
X99997500Y-96711250D02*
X99997500Y-95711250D01*
%TO.C,S6*%
X119047500Y-67136250D02*
X120047500Y-67136250D01*
X120047500Y-81136250D02*
X119047500Y-81136250D01*
X133047500Y-80136250D02*
X133047500Y-81136250D01*
X133047500Y-81136250D02*
X132047500Y-81136250D01*
X132047500Y-67136250D02*
X133047500Y-67136250D01*
X133047500Y-67136250D02*
X133047500Y-68136250D01*
X119047500Y-81136250D02*
X119047500Y-80136250D01*
X119047500Y-68136250D02*
X119047500Y-67136250D01*
%TO.C,S5*%
X99997500Y-76661250D02*
X100997500Y-76661250D01*
X100997500Y-90661250D02*
X99997500Y-90661250D01*
X113997500Y-89661250D02*
X113997500Y-90661250D01*
X113997500Y-90661250D02*
X112997500Y-90661250D01*
X112997500Y-76661250D02*
X113997500Y-76661250D01*
X113997500Y-76661250D02*
X113997500Y-77661250D01*
X99997500Y-90661250D02*
X99997500Y-89661250D01*
X99997500Y-77661250D02*
X99997500Y-76661250D01*
%TO.C,S3*%
X138097500Y-43323750D02*
X139097500Y-43323750D01*
X139097500Y-57323750D02*
X138097500Y-57323750D01*
X152097500Y-56323750D02*
X152097500Y-57323750D01*
X152097500Y-57323750D02*
X151097500Y-57323750D01*
X151097500Y-43323750D02*
X152097500Y-43323750D01*
X152097500Y-43323750D02*
X152097500Y-44323750D01*
X138097500Y-57323750D02*
X138097500Y-56323750D01*
X138097500Y-44323750D02*
X138097500Y-43323750D01*
%TO.C,S2*%
X119047500Y-48086250D02*
X120047500Y-48086250D01*
X120047500Y-62086250D02*
X119047500Y-62086250D01*
X133047500Y-61086250D02*
X133047500Y-62086250D01*
X133047500Y-62086250D02*
X132047500Y-62086250D01*
X132047500Y-48086250D02*
X133047500Y-48086250D01*
X133047500Y-48086250D02*
X133047500Y-49086250D01*
X119047500Y-62086250D02*
X119047500Y-61086250D01*
X119047500Y-49086250D02*
X119047500Y-48086250D01*
%TO.C,U2*%
X211552500Y-112246250D02*
X211552500Y-106146250D01*
X223652500Y-106146250D02*
X211552500Y-106146250D01*
X223652500Y-106396250D02*
X225652500Y-106396250D01*
X223652500Y-111996250D02*
X225652500Y-111996250D01*
X223652500Y-112246250D02*
X211552500Y-112246250D01*
X223652500Y-112246250D02*
X223652500Y-106146250D01*
X225652500Y-111996250D02*
X225652500Y-106396250D01*
%TO.C,U1*%
X198891250Y-50323750D02*
X198891250Y-101323750D01*
X198891250Y-50323750D02*
X219891250Y-50323750D01*
X198891250Y-52990750D02*
X201898250Y-52990750D01*
X201898250Y-52990750D02*
X201898250Y-50323750D01*
X219891250Y-50323750D02*
X219891250Y-101323750D01*
X219891250Y-101323750D02*
X198891250Y-101323750D01*
%TO.C,S1*%
X99997500Y-57611250D02*
X100997500Y-57611250D01*
X100997500Y-71611250D02*
X99997500Y-71611250D01*
X113997500Y-70611250D02*
X113997500Y-71611250D01*
X113997500Y-71611250D02*
X112997500Y-71611250D01*
X112997500Y-57611250D02*
X113997500Y-57611250D01*
X113997500Y-57611250D02*
X113997500Y-58611250D01*
X99997500Y-71611250D02*
X99997500Y-70611250D01*
X99997500Y-58611250D02*
X99997500Y-57611250D01*
%TO.C,S4*%
X157147500Y-48086250D02*
X158147500Y-48086250D01*
X158147500Y-62086250D02*
X157147500Y-62086250D01*
X171147500Y-61086250D02*
X171147500Y-62086250D01*
X171147500Y-62086250D02*
X170147500Y-62086250D01*
X170147500Y-48086250D02*
X171147500Y-48086250D01*
X171147500Y-48086250D02*
X171147500Y-49086250D01*
X157147500Y-62086250D02*
X157147500Y-61086250D01*
X157147500Y-49086250D02*
X157147500Y-48086250D01*
%TO.C,S7*%
X138097500Y-62373750D02*
X139097500Y-62373750D01*
X139097500Y-76373750D02*
X138097500Y-76373750D01*
X152097500Y-75373750D02*
X152097500Y-76373750D01*
X152097500Y-76373750D02*
X151097500Y-76373750D01*
X151097500Y-62373750D02*
X152097500Y-62373750D01*
X152097500Y-62373750D02*
X152097500Y-63373750D01*
X138097500Y-76373750D02*
X138097500Y-75373750D01*
X138097500Y-63373750D02*
X138097500Y-62373750D01*
%TO.C,S8*%
X157147500Y-67136250D02*
X158147500Y-67136250D01*
X158147500Y-81136250D02*
X157147500Y-81136250D01*
X171147500Y-80136250D02*
X171147500Y-81136250D01*
X171147500Y-81136250D02*
X170147500Y-81136250D01*
X170147500Y-67136250D02*
X171147500Y-67136250D01*
X171147500Y-67136250D02*
X171147500Y-68136250D01*
X157147500Y-81136250D02*
X157147500Y-80136250D01*
X157147500Y-68136250D02*
X157147500Y-67136250D01*
%TO.C,S17*%
X176197500Y-69517500D02*
X177197500Y-69517500D01*
X177197500Y-83517500D02*
X176197500Y-83517500D01*
X190197500Y-82517500D02*
X190197500Y-83517500D01*
X190197500Y-83517500D02*
X189197500Y-83517500D01*
X189197500Y-69517500D02*
X190197500Y-69517500D01*
X190197500Y-69517500D02*
X190197500Y-70517500D01*
X176197500Y-83517500D02*
X176197500Y-82517500D01*
X176197500Y-70517500D02*
X176197500Y-69517500D01*
%TO.C,S10*%
X119047500Y-86186250D02*
X120047500Y-86186250D01*
X120047500Y-100186250D02*
X119047500Y-100186250D01*
X133047500Y-99186250D02*
X133047500Y-100186250D01*
X133047500Y-100186250D02*
X132047500Y-100186250D01*
X132047500Y-86186250D02*
X133047500Y-86186250D01*
X133047500Y-86186250D02*
X133047500Y-87186250D01*
X119047500Y-100186250D02*
X119047500Y-99186250D01*
X119047500Y-87186250D02*
X119047500Y-86186250D01*
%TO.C,S15*%
X202701780Y-114246339D02*
X203667705Y-114505158D01*
X200044239Y-128028120D02*
X199078313Y-127769300D01*
X212860094Y-130426841D02*
X212601274Y-131392767D01*
X212601274Y-131392767D02*
X211635349Y-131133948D01*
X215258815Y-117610986D02*
X216224741Y-117869806D01*
X216224741Y-117869806D02*
X215965922Y-118835731D01*
X199078313Y-127769300D02*
X199337132Y-126803375D01*
X202442960Y-115212265D02*
X202701780Y-114246339D01*
%TD*%
M02*
